<svg width="37" height="37" viewBox="0 0 37 37" fill="none" xmlns="http://www.w3.org/2000/svg">
<path d="M23.1244 13.875L26.2077 4.625M10.791 13.875L13.8743 4.625M1.54102 13.875H35.4577M5.24102 4.625H31.7577C32.2436 4.625 32.7247 4.7207 33.1736 4.90665C33.6225 5.09259 34.0304 5.36513 34.374 5.7087C34.7176 6.05228 34.9901 6.46017 35.176 6.90907C35.362 7.35798 35.4577 7.83911 35.4577 8.325V28.675C35.4577 29.6563 35.0679 30.5974 34.374 31.2913C33.6801 31.9852 32.739 32.375 31.7577 32.375H5.24102C4.25971 32.375 3.31861 31.9852 2.62472 31.2913C1.93084 30.5974 1.54102 29.6563 1.54102 28.675V8.325C1.54102 7.83911 1.63672 7.35798 1.82266 6.90907C2.0086 6.46017 2.28114 6.05228 2.62472 5.7087C3.31861 5.01482 4.25971 4.625 5.24102 4.625Z" stroke="#FFB005" stroke-width="1.5" stroke-miterlimit="10" stroke-linecap="round" stroke-linejoin="round"/>
</svg>
