<svg width="32" height="24" viewBox="0 0 32 24" fill="none" xmlns="http://www.w3.org/2000/svg">
<path d="M15.5857 13.5514C14.6507 13.5514 13.8857 12.7864 13.8857 11.8514C13.8857 10.9164 14.6507 10.1514 15.5857 10.1514C16.5207 10.1514 17.2857 10.9164 17.2857 11.8514C17.2857 12.7864 16.5207 13.5514 15.5857 13.5514Z" fill="#C0C0C0"/>
<path d="M16 19.4375C17.9725 19.4375 19.8643 18.6539 21.2591 17.2591C22.6539 15.8643 23.4375 13.9725 23.4375 12C23.4375 10.0275 22.6539 8.1357 21.2591 6.74089C19.8643 5.34609 17.9725 4.5625 16 4.5625C14.0275 4.5625 12.1357 5.34609 10.7409 6.74089C9.34609 8.1357 8.5625 10.0275 8.5625 12C8.5625 13.9725 9.34609 15.8643 10.7409 17.2591C12.1357 18.6539 14.0275 19.4375 16 19.4375ZM16 7.21875C18.6031 7.25062 20.7175 9.42875 20.7175 12.0531V12.9138C20.7175 13.8594 19.9419 14.635 18.9962 14.635C18.3481 14.635 17.785 14.2737 17.4875 13.7425C16.9987 14.2312 16.3188 14.5394 15.575 14.5394C14.0875 14.5394 12.8763 13.3281 12.8763 11.8406C12.8763 10.3531 14.0875 9.14188 15.575 9.14188C16.2231 9.14188 16.8075 9.37563 17.275 9.7475V9.65187C17.275 9.37562 17.5194 9.1525 17.7956 9.1525C18.0719 9.1525 18.295 9.37562 18.295 9.65187V12.9244C18.295 13.1132 18.37 13.2942 18.5035 13.4277C18.637 13.5612 18.8181 13.6363 19.0069 13.6363C19.1957 13.6363 19.3767 13.5612 19.5102 13.4277C19.6438 13.2942 19.7187 13.1132 19.7188 12.9244V12.0637C19.7188 9.97062 18.04 8.24937 15.9894 8.2175C14.9694 8.2175 14.0025 8.6 13.28 9.31188C12.5575 10.0238 12.1538 10.98 12.1538 12C12.1538 14.0825 13.8537 15.7825 15.9362 15.7825C16.0687 15.7825 16.1957 15.8351 16.2894 15.9288C16.383 16.0224 16.4356 16.1494 16.4356 16.2819C16.4356 16.4143 16.383 16.5413 16.2894 16.635C16.1957 16.7286 16.0687 16.7813 15.9362 16.7812C13.3012 16.7813 11.155 14.635 11.155 12C11.155 10.7144 11.6544 9.50313 12.5787 8.6C13.4925 7.68625 14.7144 7.1975 16 7.21875Z" fill="#C0C0C0"/>
<path d="M0.0625024 2.44813C0.0625024 1.26663 1.01663 0.3125 2.19813 0.3125H29.8125C30.9908 0.3125 31.9375 1.273 31.9375 2.44813V21.5625C31.9375 22.7408 30.977 23.6875 29.8019 23.6875H2.19813C1.91756 23.6879 1.63966 23.633 1.38036 23.5258C1.12107 23.4186 0.885471 23.2613 0.687077 23.0629C0.488682 22.8645 0.331389 22.6289 0.224212 22.3696C0.117036 22.1103 0.0620827 21.8324 0.0625024 21.5519V2.44813ZM2.1875 2.44281V2.97087L8.93438 7.26975C8.53589 7.86335 8.21389 8.50485 7.976 9.17906L2.1875 5.49006V19.0975L8.15875 15.2927C8.43447 15.9485 8.79143 16.5671 9.22125 17.134L2.2725 21.5625H29.7434L22.7766 17.1287C23.2066 16.5611 23.5636 15.9418 23.8391 15.2852L29.8125 19.0879V5.4975L24.0198 9.18438C23.7826 8.5099 23.4613 7.86804 23.0635 7.274L29.8125 2.98044V2.44069L29.8083 2.4375H2.19281L2.18963 2.43962L2.1875 2.44281Z" fill="#C0C0C0"/>
</svg>
