<svg width="26" height="26" viewBox="0 0 26 26" fill="none" xmlns="http://www.w3.org/2000/svg">
<path d="M9.74701 9.81281L11.1489 12.6172L8.31204 14.0359L2.62305 12.1396L4.03127 7.91385L9.74701 9.81281ZM15.4224 9.8385L14.0199 12.6429L16.8568 14.0616L22.5458 12.1647L21.1376 7.93902L15.4224 9.8385ZM8.50813 14.7301L11.5726 14.0647L12.2452 17.1648L9.00043 22.2079L5.25495 19.7978L8.50813 14.7301ZM10.3772 9.48565L12.5944 11.7028L14.8373 9.45996V3.46321H10.3835L10.3772 9.48565ZM16.6812 14.7411L13.6167 14.0763L12.9441 17.1758L16.1889 22.2194L19.9344 19.8093L16.6812 14.7411Z" stroke="#C0C0C0" stroke-width="0.62914" stroke-linecap="round" stroke-linejoin="round"/>
</svg>
