<svg width="1387" height="598" viewBox="0 0 1387 598" fill="none" xmlns="http://www.w3.org/2000/svg">
<mask id="path-1-outside-1_139_807" maskUnits="userSpaceOnUse" x="0" y="0" width="1387" height="598" fill="black">
<rect fill="white" width="1387" height="598"/>
<path d="M3.06251 583.778V177.185H40.2503L40.6044 583.778H3.06251ZM2 109.556V32.1481H41.6669V109.556H2ZM94.001 208.148C99.1954 202.173 104.98 196.741 111.355 191.852C117.966 186.42 124.932 181.802 132.251 178C139.571 174.198 147.008 171.21 154.564 169.037C162.119 166.864 169.439 165.778 176.522 165.778C193.286 165.778 206.981 171.21 217.606 182.074C228.231 192.395 236.141 208.691 241.335 230.963C246.53 252.691 249.127 280.123 249.127 313.259V583.778H211.939V324.667C211.939 314.346 211.349 304.296 210.168 294.518C209.224 284.198 207.217 274.963 204.148 266.815C201.314 258.123 197.064 251.333 191.397 246.444C185.967 241.556 178.765 239.111 169.793 239.111C163.418 239.111 156.807 240.469 149.96 243.185C143.349 245.901 137.092 249.704 131.189 254.593V583.778H94.001V208.148ZM316.397 583.778V245.63H288.064V174.741H316.751V158.444C316.751 129.654 318.05 105.753 320.647 86.7408C323.48 67.7284 327.14 52.5185 331.626 41.1111C336.112 29.7037 341.071 21.284 346.501 15.8519C351.932 9.87657 357.363 6.0741 362.793 4.44446C368.46 2.81482 373.772 2 378.731 2C382.272 2 385.814 2.54322 389.356 3.62966C392.898 4.71606 395.967 6.07409 398.564 7.70373V83.4815C396.439 80.7654 394.196 78.5926 391.835 76.963C389.71 74.7901 386.877 73.7037 383.335 73.7037C379.793 73.7037 376.252 74.5185 372.71 76.1482C369.168 77.2346 365.981 80.4938 363.147 85.9259C360.314 90.8148 358.071 98.4197 356.418 108.741C354.765 119.062 353.939 133.185 353.939 151.111V174.741H398.564V245.63H353.585V583.778H316.397ZM503.564 596C474.759 596 453.272 577.259 439.106 539.778C425.175 502.296 418.21 448.79 418.21 379.259C418.21 305.383 425.411 251.333 439.814 217.111C454.453 182.346 475.467 164.963 502.856 164.963C522.453 164.963 538.627 173.383 551.377 190.222C564.127 206.519 573.572 230.691 579.711 262.741C585.85 294.79 588.919 333.63 588.919 379.259C588.919 448.247 581.482 501.753 566.607 539.778C551.967 577.259 530.953 596 503.564 596ZM503.21 523.481C515.252 523.481 524.815 517.506 531.898 505.556C538.981 493.062 544.058 475.951 547.127 454.222C550.433 432.494 552.086 407.506 552.086 379.259C552.086 347.753 550.433 321.407 547.127 300.222C543.822 279.037 538.627 263.284 531.544 252.963C524.46 242.099 515.016 236.667 503.21 236.667C491.405 236.667 481.96 242.37 474.877 253.778C467.793 265.185 462.717 281.481 459.647 302.667C456.578 323.852 455.043 349.383 455.043 379.259C455.043 424.346 458.703 459.654 466.022 485.185C473.342 510.716 485.738 523.481 503.21 523.481ZM710.798 596C699.936 596 689.311 592.741 678.922 586.222C668.533 580.247 659.089 569.383 650.589 553.63C642.089 537.333 635.36 514.79 630.401 486C625.443 457.21 622.964 420 622.964 374.37C622.964 309.728 629.811 258.667 643.505 221.185C657.2 183.704 677.978 164.963 705.839 164.963C710.325 164.963 715.874 166.321 722.485 169.037C729.096 171.753 735.826 175.827 742.673 181.259C749.52 186.148 755.305 192.667 760.027 200.815L750.464 229.333V3.62966H787.298V498.222C787.298 515.062 784.937 529.728 780.215 542.222C775.729 554.716 769.708 565.037 762.152 573.185C754.596 580.79 746.333 586.494 737.36 590.296C728.388 594.099 719.534 596 710.798 596ZM711.86 521.852C722.485 521.852 731.576 518.864 739.131 512.889C746.687 506.914 750.464 499.037 750.464 489.259V261.926C744.326 253.778 737.832 247.802 730.985 244C724.138 240.198 717.527 238.296 711.152 238.296C699.582 238.296 690.02 243.728 682.464 254.593C675.145 264.914 669.714 280.395 666.172 301.037C662.631 321.136 660.86 346.123 660.86 376C660.86 403.16 662.276 427.877 665.11 450.148C667.943 471.877 673.019 489.259 680.339 502.296C687.895 515.333 698.402 521.852 711.86 521.852ZM916.194 596C898.721 596 883.492 587.852 870.506 571.556C857.756 555.259 847.839 531.086 840.756 499.037C833.908 466.988 830.485 427.877 830.485 381.704C830.485 310.543 837.686 256.765 852.089 220.37C866.728 183.432 887.034 164.963 913.006 164.963C932.131 164.963 947.596 174.741 959.402 194.296C971.208 213.852 979.708 241.284 984.902 276.593C990.333 311.358 992.93 352.099 992.694 398.815H852.797L851.735 335.259H964.361L955.506 355.63C954.798 313.802 951.02 283.383 944.173 264.37C937.326 244.815 926.583 235.037 911.944 235.037C902.499 235.037 894.471 239.654 887.86 248.889C881.249 257.58 876.172 272.79 872.631 294.518C869.325 315.704 867.672 345.037 867.672 382.518C867.672 428.148 872.277 462.914 881.485 486.815C890.693 510.173 904.27 521.852 922.214 521.852C930.242 521.852 937.68 520.222 944.527 516.963C951.61 513.704 958.104 509.63 964.006 504.741C969.909 499.309 974.986 494.148 979.236 489.259V568.296C970.972 576.444 961.645 582.963 951.256 587.852C940.867 593.284 929.18 596 916.194 596ZM1064.5 346.667L1137.1 174.741H1182.79L1080.43 398.815L1064.5 346.667ZM1072.29 583.778H1035.45V19.9259H1072.64L1072.29 583.778ZM1088.93 318.963L1191.64 583.778H1143.83L1062.73 376L1088.93 318.963ZM1228.1 583.778V2H1265.29V235.852L1254.31 214.667C1263.52 200 1273.67 188.321 1284.77 179.63C1296.1 170.395 1307.08 165.778 1317.71 165.778C1331.64 165.778 1343.56 171.481 1353.48 182.889C1363.4 193.753 1371.07 211.407 1376.5 235.852C1382.17 259.753 1385 291.259 1385 330.37V583.778H1347.81V340.963C1347.81 307.827 1344.39 282.568 1337.54 265.185C1330.69 247.802 1320.54 239.111 1307.08 239.111C1300 239.111 1292.8 241.556 1285.48 246.444C1278.4 251.333 1271.67 257.852 1265.29 266L1264.94 583.778H1228.1Z"/>
</mask>
<path d="M3.06251 583.778V177.185H40.2503L40.6044 583.778H3.06251ZM2 109.556V32.1481H41.6669V109.556H2ZM94.001 208.148C99.1954 202.173 104.98 196.741 111.355 191.852C117.966 186.42 124.932 181.802 132.251 178C139.571 174.198 147.008 171.21 154.564 169.037C162.119 166.864 169.439 165.778 176.522 165.778C193.286 165.778 206.981 171.21 217.606 182.074C228.231 192.395 236.141 208.691 241.335 230.963C246.53 252.691 249.127 280.123 249.127 313.259V583.778H211.939V324.667C211.939 314.346 211.349 304.296 210.168 294.518C209.224 284.198 207.217 274.963 204.148 266.815C201.314 258.123 197.064 251.333 191.397 246.444C185.967 241.556 178.765 239.111 169.793 239.111C163.418 239.111 156.807 240.469 149.96 243.185C143.349 245.901 137.092 249.704 131.189 254.593V583.778H94.001V208.148ZM316.397 583.778V245.63H288.064V174.741H316.751V158.444C316.751 129.654 318.05 105.753 320.647 86.7408C323.48 67.7284 327.14 52.5185 331.626 41.1111C336.112 29.7037 341.071 21.284 346.501 15.8519C351.932 9.87657 357.363 6.0741 362.793 4.44446C368.46 2.81482 373.772 2 378.731 2C382.272 2 385.814 2.54322 389.356 3.62966C392.898 4.71606 395.967 6.07409 398.564 7.70373V83.4815C396.439 80.7654 394.196 78.5926 391.835 76.963C389.71 74.7901 386.877 73.7037 383.335 73.7037C379.793 73.7037 376.252 74.5185 372.71 76.1482C369.168 77.2346 365.981 80.4938 363.147 85.9259C360.314 90.8148 358.071 98.4197 356.418 108.741C354.765 119.062 353.939 133.185 353.939 151.111V174.741H398.564V245.63H353.585V583.778H316.397ZM503.564 596C474.759 596 453.272 577.259 439.106 539.778C425.175 502.296 418.21 448.79 418.21 379.259C418.21 305.383 425.411 251.333 439.814 217.111C454.453 182.346 475.467 164.963 502.856 164.963C522.453 164.963 538.627 173.383 551.377 190.222C564.127 206.519 573.572 230.691 579.711 262.741C585.85 294.79 588.919 333.63 588.919 379.259C588.919 448.247 581.482 501.753 566.607 539.778C551.967 577.259 530.953 596 503.564 596ZM503.21 523.481C515.252 523.481 524.815 517.506 531.898 505.556C538.981 493.062 544.058 475.951 547.127 454.222C550.433 432.494 552.086 407.506 552.086 379.259C552.086 347.753 550.433 321.407 547.127 300.222C543.822 279.037 538.627 263.284 531.544 252.963C524.46 242.099 515.016 236.667 503.21 236.667C491.405 236.667 481.96 242.37 474.877 253.778C467.793 265.185 462.717 281.481 459.647 302.667C456.578 323.852 455.043 349.383 455.043 379.259C455.043 424.346 458.703 459.654 466.022 485.185C473.342 510.716 485.738 523.481 503.21 523.481ZM710.798 596C699.936 596 689.311 592.741 678.922 586.222C668.533 580.247 659.089 569.383 650.589 553.63C642.089 537.333 635.36 514.79 630.401 486C625.443 457.21 622.964 420 622.964 374.37C622.964 309.728 629.811 258.667 643.505 221.185C657.2 183.704 677.978 164.963 705.839 164.963C710.325 164.963 715.874 166.321 722.485 169.037C729.096 171.753 735.826 175.827 742.673 181.259C749.52 186.148 755.305 192.667 760.027 200.815L750.464 229.333V3.62966H787.298V498.222C787.298 515.062 784.937 529.728 780.215 542.222C775.729 554.716 769.708 565.037 762.152 573.185C754.596 580.79 746.333 586.494 737.36 590.296C728.388 594.099 719.534 596 710.798 596ZM711.86 521.852C722.485 521.852 731.576 518.864 739.131 512.889C746.687 506.914 750.464 499.037 750.464 489.259V261.926C744.326 253.778 737.832 247.802 730.985 244C724.138 240.198 717.527 238.296 711.152 238.296C699.582 238.296 690.02 243.728 682.464 254.593C675.145 264.914 669.714 280.395 666.172 301.037C662.631 321.136 660.86 346.123 660.86 376C660.86 403.16 662.276 427.877 665.11 450.148C667.943 471.877 673.019 489.259 680.339 502.296C687.895 515.333 698.402 521.852 711.86 521.852ZM916.194 596C898.721 596 883.492 587.852 870.506 571.556C857.756 555.259 847.839 531.086 840.756 499.037C833.908 466.988 830.485 427.877 830.485 381.704C830.485 310.543 837.686 256.765 852.089 220.37C866.728 183.432 887.034 164.963 913.006 164.963C932.131 164.963 947.596 174.741 959.402 194.296C971.208 213.852 979.708 241.284 984.902 276.593C990.333 311.358 992.93 352.099 992.694 398.815H852.797L851.735 335.259H964.361L955.506 355.63C954.798 313.802 951.02 283.383 944.173 264.37C937.326 244.815 926.583 235.037 911.944 235.037C902.499 235.037 894.471 239.654 887.86 248.889C881.249 257.58 876.172 272.79 872.631 294.518C869.325 315.704 867.672 345.037 867.672 382.518C867.672 428.148 872.277 462.914 881.485 486.815C890.693 510.173 904.27 521.852 922.214 521.852C930.242 521.852 937.68 520.222 944.527 516.963C951.61 513.704 958.104 509.63 964.006 504.741C969.909 499.309 974.986 494.148 979.236 489.259V568.296C970.972 576.444 961.645 582.963 951.256 587.852C940.867 593.284 929.18 596 916.194 596ZM1064.5 346.667L1137.1 174.741H1182.79L1080.43 398.815L1064.5 346.667ZM1072.29 583.778H1035.45V19.9259H1072.64L1072.29 583.778ZM1088.93 318.963L1191.64 583.778H1143.83L1062.73 376L1088.93 318.963ZM1228.1 583.778V2H1265.29V235.852L1254.31 214.667C1263.52 200 1273.67 188.321 1284.77 179.63C1296.1 170.395 1307.08 165.778 1317.71 165.778C1331.64 165.778 1343.56 171.481 1353.48 182.889C1363.4 193.753 1371.07 211.407 1376.5 235.852C1382.17 259.753 1385 291.259 1385 330.37V583.778H1347.81V340.963C1347.81 307.827 1344.39 282.568 1337.54 265.185C1330.69 247.802 1320.54 239.111 1307.08 239.111C1300 239.111 1292.8 241.556 1285.48 246.444C1278.4 251.333 1271.67 257.852 1265.29 266L1264.94 583.778H1228.1Z" stroke="url(#paint0_linear_139_807)" stroke-opacity="0.4" stroke-width="2.09045" mask="url(#path-1-outside-1_139_807)"/>
<defs>
<linearGradient id="paint0_linear_139_807" x1="693.942" y1="-203.205" x2="693.942" y2="754.061" gradientUnits="userSpaceOnUse">
<stop stop-color="#7E6136"/>
<stop offset="0.721194" stop-color="#272727"/>
</linearGradient>
</defs>
</svg>
