<svg width="27" height="27" viewBox="0 0 27 27" fill="none" xmlns="http://www.w3.org/2000/svg">
<path d="M26.8286 13.7825C26.8286 20.8797 20.8228 26.6332 13.4143 26.6332C6.00578 26.6332 0 20.8797 0 13.7825C0 6.68516 6.00578 0.931669 13.4143 0.931669C20.8228 0.931669 26.8286 6.68516 26.8286 13.7825Z" fill="#F8A933"/>
<path d="M13.4141 4.67358C18.6995 4.67358 22.9451 8.77289 22.9454 13.782C22.9454 18.7913 18.6997 22.8904 13.4141 22.8904C8.12867 22.8903 3.88287 18.7912 3.88287 13.782C3.8831 8.77294 8.12881 4.67367 13.4141 4.67358Z" fill="#F8A933" stroke="#2D2D2D" stroke-width="1.05925"/>
<mask id="path-3-outside-1_101_802" maskUnits="userSpaceOnUse" x="10.2306" y="6.71313" width="6" height="15" fill="black">
<rect fill="white" x="10.2306" y="6.71313" width="6" height="15"/>
<path d="M13.4581 8.24679C13.8567 8.24679 14.1408 8.35642 14.3102 8.57568C14.4896 8.79494 14.5793 9.04908 14.5793 9.33811C14.5793 9.6969 14.4697 9.97596 14.2504 10.1753C14.0411 10.3646 13.7421 10.4593 13.3534 10.4593C12.9747 10.4593 12.6907 10.3547 12.5013 10.1454C12.3119 9.92613 12.2173 9.67198 12.2173 9.38296C12.2173 9.00423 12.3319 8.72019 12.5611 8.53083C12.7903 8.34147 13.0893 8.24679 13.4581 8.24679ZM13.5478 11.5805C13.8667 11.5805 14.1159 11.8795 14.2953 12.4775C14.4846 13.0755 14.5793 14.0273 14.5793 15.3329C14.5793 16.9375 14.4647 18.0936 14.2355 18.8012C14.0062 19.5088 13.6574 19.8626 13.189 19.8626C12.8302 19.8626 12.5661 19.6035 12.3967 19.0853C12.2272 18.557 12.1425 17.6401 12.1425 16.3345C12.1425 14.7299 12.2721 13.5389 12.5312 12.7616C12.8003 11.9742 13.1392 11.5805 13.5478 11.5805Z"/>
</mask>
<path d="M13.4581 8.24679C13.8567 8.24679 14.1408 8.35642 14.3102 8.57568C14.4896 8.79494 14.5793 9.04908 14.5793 9.33811C14.5793 9.6969 14.4697 9.97596 14.2504 10.1753C14.0411 10.3646 13.7421 10.4593 13.3534 10.4593C12.9747 10.4593 12.6907 10.3547 12.5013 10.1454C12.3119 9.92613 12.2173 9.67198 12.2173 9.38296C12.2173 9.00423 12.3319 8.72019 12.5611 8.53083C12.7903 8.34147 13.0893 8.24679 13.4581 8.24679ZM13.5478 11.5805C13.8667 11.5805 14.1159 11.8795 14.2953 12.4775C14.4846 13.0755 14.5793 14.0273 14.5793 15.3329C14.5793 16.9375 14.4647 18.0936 14.2355 18.8012C14.0062 19.5088 13.6574 19.8626 13.189 19.8626C12.8302 19.8626 12.5661 19.6035 12.3967 19.0853C12.2272 18.557 12.1425 17.6401 12.1425 16.3345C12.1425 14.7299 12.2721 13.5389 12.5312 12.7616C12.8003 11.9742 13.1392 11.5805 13.5478 11.5805Z" fill="white"/>
<path d="M14.3102 8.57568L13.472 9.22335L13.4811 9.23502L13.4904 9.24643L14.3102 8.57568ZM14.2504 10.1753L14.9611 10.9608L14.9629 10.9591L14.2504 10.1753ZM12.5013 10.1454L11.6996 10.8377L11.7076 10.847L11.7158 10.8561L12.5013 10.1454ZM14.2953 12.4775L13.2807 12.7819L13.283 12.7896L13.2854 12.7973L14.2953 12.4775ZM14.2355 18.8012L13.2278 18.4748L13.2278 18.4748L14.2355 18.8012ZM12.3967 19.0853L11.388 19.4088L11.3898 19.4144L12.3967 19.0853ZM12.5312 12.7616L11.5289 12.419L11.5263 12.4266L12.5312 12.7616ZM13.4581 8.24679V9.30604C13.5098 9.30604 13.5455 9.30964 13.5676 9.31319C13.5896 9.31673 13.5952 9.31971 13.5887 9.31721C13.5816 9.31447 13.5634 9.30639 13.5397 9.28926C13.5156 9.27175 13.4921 9.24929 13.472 9.22335L14.3102 8.57568L15.1484 7.928C14.7013 7.34944 14.0339 7.18754 13.4581 7.18754V8.24679ZM14.3102 8.57568L13.4904 9.24643C13.5116 9.27232 13.5201 9.28822 13.5201 9.33811H14.5793H15.6386C15.6386 8.80995 15.4676 8.31755 15.13 7.90492L14.3102 8.57568ZM14.5793 9.33811H13.5201C13.5201 9.41041 13.509 9.43469 13.5112 9.42918C13.5123 9.42642 13.5154 9.4195 13.5214 9.41074C13.5275 9.40195 13.5336 9.39538 13.5379 9.39151L14.2504 10.1753L14.9629 10.9591C15.4489 10.5173 15.6386 9.92715 15.6386 9.33811H14.5793ZM14.2504 10.1753L13.5397 9.38981C13.5598 9.37171 13.5702 9.37189 13.5494 9.37849C13.5247 9.38633 13.4641 9.40008 13.3534 9.40008V10.4593V11.5186C13.9051 11.5186 14.494 11.3834 14.9611 10.9608L14.2504 10.1753ZM13.3534 10.4593V9.40008C13.2589 9.40008 13.222 9.38671 13.2225 9.3869C13.2236 9.3873 13.2328 9.39089 13.2465 9.39996C13.2605 9.40921 13.2745 9.42115 13.2868 9.43472L12.5013 10.1454L11.7158 10.8561C12.1681 11.356 12.7826 11.5186 13.3534 11.5186V10.4593ZM12.5013 10.1454L13.303 9.45304C13.285 9.43217 13.2813 9.42175 13.2809 9.42054C13.2804 9.41936 13.2765 9.40957 13.2765 9.38296H12.2173H11.158C11.158 9.92686 11.3446 10.4266 11.6996 10.8377L12.5013 10.1454ZM12.2173 9.38296H13.2765C13.2765 9.29834 13.2895 9.27237 13.2855 9.28225C13.2833 9.28767 13.2779 9.29907 13.2677 9.31309C13.2574 9.32723 13.246 9.33896 13.2357 9.34747L12.5611 8.53083L11.8865 7.71419C11.3496 8.15768 11.158 8.78198 11.158 9.38296H12.2173ZM12.5611 8.53083L13.2357 9.34747C13.2399 9.34404 13.2499 9.33621 13.277 9.32763C13.3068 9.31821 13.3636 9.30604 13.4581 9.30604V8.24679V7.18754C12.904 7.18754 12.3478 7.33314 11.8865 7.71419L12.5611 8.53083ZM13.5478 11.5805V12.6398C13.4545 12.6398 13.3606 12.6161 13.2806 12.574C13.2057 12.5346 13.1682 12.4926 13.1601 12.4829C13.153 12.4744 13.1663 12.4883 13.1919 12.5417C13.2169 12.5941 13.2477 12.672 13.2807 12.7819L14.2953 12.4775L15.3098 12.1732C15.201 11.8103 15.0423 11.4323 14.7876 11.1267C14.5104 10.7941 14.0904 10.5213 13.5478 10.5213V11.5805ZM14.2953 12.4775L13.2854 12.7973C13.4228 13.231 13.5201 14.0448 13.5201 15.3329H14.5793H15.6386C15.6386 14.0098 15.5465 12.92 15.3051 12.1577L14.2953 12.4775ZM14.5793 15.3329H13.5201C13.5201 16.9244 13.402 17.9368 13.2278 18.4748L14.2355 18.8012L15.2432 19.1276C15.5273 18.2504 15.6386 16.9506 15.6386 15.3329H14.5793ZM14.2355 18.8012L13.2278 18.4748C13.1862 18.603 13.1456 18.6952 13.1109 18.759C13.0761 18.8228 13.0523 18.8488 13.0476 18.8536C13.0448 18.8564 13.0608 18.8399 13.097 18.8242C13.1346 18.808 13.169 18.8034 13.189 18.8034V19.8626V20.9219C14.3692 20.9219 14.97 19.9708 15.2432 19.1276L14.2355 18.8012ZM13.189 19.8626V18.8034C13.2299 18.8034 13.2854 18.8114 13.3445 18.836C13.403 18.8604 13.4426 18.8915 13.4637 18.9122C13.4828 18.9309 13.4811 18.9355 13.4666 18.9094C13.452 18.8833 13.4292 18.8348 13.4035 18.7561L12.3967 19.0853L11.3898 19.4144C11.5042 19.7643 11.6828 20.1328 11.98 20.4244C12.3032 20.7415 12.7226 20.9219 13.189 20.9219V19.8626ZM12.3967 19.0853L13.4053 18.7617C13.2914 18.4066 13.2018 17.6386 13.2018 16.3345H12.1425H11.0833C11.0833 17.6417 11.1631 18.7075 11.388 19.4088L12.3967 19.0853ZM12.1425 16.3345H13.2018C13.2018 14.7565 13.3329 13.7062 13.5361 13.0965L12.5312 12.7616L11.5263 12.4266C11.2113 13.3717 11.0833 14.7033 11.0833 16.3345H12.1425ZM12.5312 12.7616L13.5335 13.1041C13.5881 12.9445 13.6405 12.8217 13.6879 12.7297C13.7358 12.6366 13.7721 12.5876 13.79 12.5668C13.8073 12.5467 13.7958 12.5664 13.748 12.5916C13.6946 12.6197 13.6235 12.6398 13.5478 12.6398V11.5805V10.5213C12.9551 10.5213 12.4963 10.8224 12.1844 11.1848C11.8898 11.527 11.684 11.9653 11.5289 12.419L12.5312 12.7616Z" fill="#2D2D2D" mask="url(#path-3-outside-1_101_802)"/>
</svg>
