<svg width="28" height="28" viewBox="0 0 28 28" fill="none" xmlns="http://www.w3.org/2000/svg">
<path d="M9.09992 2.33334H18.8999C22.6333 2.33334 25.6666 5.36668 25.6666 9.10001V18.9C25.6666 20.6946 24.9537 22.4158 23.6847 23.6848C22.4157 24.9538 20.6946 25.6667 18.8999 25.6667H9.09992C5.36659 25.6667 2.33325 22.6333 2.33325 18.9V9.10001C2.33325 7.30538 3.04617 5.58425 4.31516 4.31525C5.58416 3.04626 7.30529 2.33334 9.09992 2.33334ZM8.86659 4.66668C7.75268 4.66668 6.68439 5.10918 5.89674 5.89683C5.10908 6.68448 4.66659 7.75277 4.66659 8.86668V19.1333C4.66659 21.455 6.54492 23.3333 8.86659 23.3333H19.1333C20.2472 23.3333 21.3155 22.8908 22.1031 22.1032C22.8908 21.3155 23.3333 20.2473 23.3333 19.1333V8.86668C23.3333 6.54501 21.4549 4.66668 19.1333 4.66668H8.86659ZM20.1249 6.41668C20.5117 6.41668 20.8826 6.57032 21.1561 6.84381C21.4296 7.1173 21.5833 7.48824 21.5833 7.87501C21.5833 8.26178 21.4296 8.63272 21.1561 8.90621C20.8826 9.1797 20.5117 9.33334 20.1249 9.33334C19.7381 9.33334 19.3672 9.1797 19.0937 8.90621C18.8202 8.63272 18.6666 8.26178 18.6666 7.87501C18.6666 7.48824 18.8202 7.1173 19.0937 6.84381C19.3672 6.57032 19.7381 6.41668 20.1249 6.41668ZM13.9999 8.16668C15.547 8.16668 17.0307 8.78126 18.1247 9.87522C19.2187 10.9692 19.8333 12.4529 19.8333 14C19.8333 15.5471 19.2187 17.0308 18.1247 18.1248C17.0307 19.2188 15.547 19.8333 13.9999 19.8333C12.4528 19.8333 10.9691 19.2188 9.87513 18.1248C8.78117 17.0308 8.16659 15.5471 8.16659 14C8.16659 12.4529 8.78117 10.9692 9.87513 9.87522C10.9691 8.78126 12.4528 8.16668 13.9999 8.16668ZM13.9999 10.5C13.0717 10.5 12.1814 10.8688 11.525 11.5251C10.8687 12.1815 10.4999 13.0718 10.4999 14C10.4999 14.9283 10.8687 15.8185 11.525 16.4749C12.1814 17.1313 13.0717 17.5 13.9999 17.5C14.9282 17.5 15.8184 17.1313 16.4748 16.4749C17.1312 15.8185 17.4999 14.9283 17.4999 14C17.4999 13.0718 17.1312 12.1815 16.4748 11.5251C15.8184 10.8688 14.9282 10.5 13.9999 10.5Z" fill="#EAEAEA"/>
</svg>
