<svg width="26" height="26" viewBox="0 0 26 26" fill="none" xmlns="http://www.w3.org/2000/svg">
<path d="M16.254 7.85655C16.254 5.82968 14.6109 4.18657 12.584 4.18657C10.5572 4.18657 8.91406 5.82968 8.91406 7.85655V13.0994C8.91406 15.1263 10.5572 16.7694 12.584 16.7694C14.6109 16.7694 16.254 15.1263 16.254 13.0994V7.85655Z" stroke="#C0C0C0" stroke-width="1.25828" stroke-linejoin="round"/>
<path d="M8.91406 12.5751H11.0112M14.1569 12.5751H16.254M8.91406 10.478H11.0112M14.1569 10.478H16.254M8.91406 8.38083H11.0112M14.1569 8.38083H16.254" stroke="#C0C0C0" stroke-width="1.25828" stroke-linecap="round" stroke-linejoin="round"/>
<path d="M12.584 19.3907V22.0122" stroke="#C0C0C0" stroke-width="1.25828"/>
<path d="M8.91406 22.0122H16.254" stroke="#C0C0C0" stroke-width="1.25828" stroke-linecap="round" stroke-linejoin="round"/>
<path d="M6.7207 15.38C7.17177 16.5397 7.95661 17.5396 8.97596 18.2532C9.99531 18.9669 11.2034 19.3622 12.4474 19.3893C13.6915 19.4163 14.9156 19.0739 15.965 18.4052C17.0144 17.7365 17.842 16.7717 18.343 15.6327" stroke="#C0C0C0" stroke-width="1.25828" stroke-linecap="round"/>
</svg>
