<svg width="28" height="29" viewBox="0 0 28 29" fill="none" xmlns="http://www.w3.org/2000/svg">
<g clip-path="url(#clip0_143_1119)">
<path d="M16.7685 0.516556H7.11664C5.96552 0.516556 5.03125 1.47736 5.03125 2.66192V19.7095C5.03125 20.8941 5.96552 21.8549 7.11664 21.8549H16.7685C17.9196 21.8549 18.8539 20.8941 18.8539 19.7095V2.66192C18.8539 1.47736 17.9196 0.516556 16.7685 0.516556Z" stroke="#FF8438" stroke-width="1.88742" stroke-linecap="round" stroke-linejoin="round"/>
<path d="M9.64062 3.42549H14.2474M11.944 18.9979C12.0257 19.0029 12.1077 18.9912 12.1847 18.9634C12.2617 18.9356 12.3323 18.8924 12.3919 18.8363C12.4516 18.7802 12.4992 18.7125 12.5317 18.6373C12.5642 18.5622 12.581 18.4811 12.581 18.3992C12.581 18.3173 12.5642 18.2363 12.5317 18.1611C12.4992 18.086 12.4516 18.0183 12.3919 17.9622C12.3323 17.9061 12.2617 17.8628 12.1847 17.835C12.1077 17.8072 12.0257 17.7955 11.944 17.8006C11.7917 17.8101 11.6487 17.8773 11.5441 17.9885C11.4396 18.0997 11.3814 18.2466 11.3814 18.3992C11.3814 18.5519 11.4396 18.6988 11.5441 18.81C11.6487 18.9212 11.7917 18.9884 11.944 18.9979Z" stroke="#FF8438" stroke-width="1.88742" stroke-linecap="round" stroke-linejoin="round"/>
</g>
<defs>
<clipPath id="clip0_143_1119">
<rect width="27.6822" height="27.6822" fill="white" transform="translate(0 0.516556)"/>
</clipPath>
</defs>
</svg>
