<svg width="26" height="26" viewBox="0 0 26 26" fill="none" xmlns="http://www.w3.org/2000/svg">
<g clip-path="url(#clip0_143_1115)">
<path d="M20.6055 5.06449L17.7324 1.35256L21.8533 0.534683L22.6712 4.64506L20.6055 5.06449ZM17.5227 5.66217L14.6496 1.96073L12.584 2.36967L15.4675 6.07111L17.5227 5.66217ZM12.3847 6.68977L9.51167 2.96736L7.44599 3.39727L10.3296 7.09871L12.3847 6.68977ZM4.36321 4.01592L3.33561 4.21515C3.0655 4.26842 2.80856 4.37448 2.57952 4.52725C2.35048 4.68003 2.15385 4.87651 2.00091 5.10544C1.84797 5.33436 1.74172 5.59123 1.68826 5.86131C1.63479 6.13138 1.63517 6.40935 1.68936 6.67928L2.0983 8.73447L7.23628 7.71736L4.36321 4.01592ZM23.0696 8.73447V19.2201C23.0696 20.384 22.1364 21.3173 20.9725 21.3173H4.19544C3.63924 21.3173 3.10583 21.0963 2.71254 20.703C2.31925 20.3097 2.0983 19.7763 2.0983 19.2201V8.73447H23.0696ZM20.9725 10.8316H4.19544V19.2201H20.9725V10.8316ZM7.34114 25.5115H9.43827V23.4144H7.34114V25.5115ZM15.7297 25.5115H17.8268V23.4144H15.7297V25.5115ZM11.5354 25.5115H13.6325V23.4144H11.5354V25.5115Z" fill="#C0C0C0"/>
</g>
<defs>
<clipPath id="clip0_143_1115">
<rect width="25.1656" height="25.1656" fill="white" transform="translate(0 0.345947)"/>
</clipPath>
</defs>
</svg>
