<svg width="41" height="41" viewBox="0 0 41 41" fill="none" xmlns="http://www.w3.org/2000/svg">
<mask id="mask0_108_943" style="mask-type:luminance" maskUnits="userSpaceOnUse" x="0" y="0" width="41" height="41">
<path d="M0 0H41V41H0V0Z" fill="white"/>
<path fill-rule="evenodd" clip-rule="evenodd" d="M19.6402 9.75761C20.7947 8.54684 22.3829 7.8443 24.0554 7.80452C25.7279 7.76474 27.3477 8.391 28.5585 9.54551C29.7692 10.7 30.4718 12.2882 30.5115 13.9607C30.5513 15.6332 29.9251 17.253 28.7705 18.4638L20.3356 27.3072C20.014 27.6445 19.6291 27.9152 19.2029 28.1038C18.7767 28.2924 18.3175 28.3952 17.8515 28.4063C16.9105 28.4288 15.9991 28.0765 15.3178 27.427C14.9805 27.1054 14.7098 26.7205 14.5212 26.2943C14.3326 25.8681 14.2298 25.4089 14.2187 24.943C14.1962 24.002 14.5485 23.0906 15.198 22.4093L22.2705 14.9883C22.3419 14.9133 22.4274 14.8531 22.5221 14.8112C22.6168 14.7693 22.7188 14.7464 22.8224 14.744C22.9259 14.7415 23.0289 14.7594 23.1255 14.7967C23.2221 14.834 23.3104 14.89 23.3854 14.9615C23.4603 15.0329 23.5205 15.1184 23.5624 15.2131C23.6043 15.3078 23.6272 15.4098 23.6297 15.5133C23.6321 15.6169 23.6142 15.7199 23.5769 15.8165C23.5396 15.9131 23.4836 16.0014 23.4122 16.0763L16.3397 23.4958C15.9787 23.8743 15.7829 24.3806 15.7954 24.9035C15.8078 25.4263 16.0274 25.9228 16.4059 26.2838C16.7844 26.6447 17.2908 26.8405 17.8136 26.8281C18.3365 26.8156 18.833 26.596 19.1939 26.2175L27.6289 17.3741C28.0576 16.9246 28.3936 16.3949 28.6177 15.8155C28.8418 15.2361 28.9496 14.6181 28.9349 13.9971C28.9201 13.376 28.7832 12.7639 28.532 12.1957C28.2807 11.6275 27.92 11.1144 27.4704 10.6856C27.0208 10.2569 26.4912 9.92084 25.9117 9.69675C25.3323 9.47267 24.7144 9.36491 24.0933 9.37963C23.4722 9.39434 22.8601 9.53125 22.2919 9.78252C21.7237 10.0338 21.2106 10.3945 20.7819 10.8441L13.1637 18.8328C13.0923 18.9078 13.0068 18.9679 12.9121 19.0098C12.8174 19.0518 12.7154 19.0746 12.6118 19.0771C12.5083 19.0796 12.4053 19.0617 12.3087 19.0243C12.2121 18.987 12.1238 18.931 12.0489 18.8596C11.9739 18.7882 11.9137 18.7027 11.8718 18.608C11.8299 18.5133 11.807 18.4112 11.8045 18.3077C11.7995 18.0986 11.8778 17.8961 12.022 17.7447L19.6402 9.75761Z" fill="black"/>
<path fill-rule="evenodd" clip-rule="evenodd" d="M11.7682 30.5783C11.0759 29.9175 10.4688 28.913 9.9626 27.806C8.84299 25.3586 9.69452 22.4713 11.6925 20.3756L18.6073 13.128C18.7516 12.9766 18.8298 12.7741 18.8248 12.565C18.8198 12.3559 18.7319 12.1574 18.5805 12.0131C18.5055 11.9417 18.4172 11.8857 18.3206 11.8484C18.224 11.8111 18.121 11.7931 18.0175 11.7956C17.8084 11.8007 17.6099 11.8885 17.4656 12.0399L10.5539 19.2875C8.25952 21.6939 7.06264 25.253 8.52918 28.462C9.06849 29.64 9.77652 30.8558 10.6817 31.7199C11.5742 32.5715 12.7979 33.2133 13.9838 33.6927C17.2874 35.0315 20.8229 33.6312 23.1157 31.1806L32.0916 21.5914C32.1624 21.5158 32.2176 21.427 32.2541 21.33C32.2906 21.2331 32.3077 21.1299 32.3043 21.0264C32.301 20.9229 32.2772 20.821 32.2345 20.7267C32.1918 20.6323 32.1309 20.5473 32.0553 20.4765C31.9797 20.4057 31.8909 20.3504 31.794 20.3139C31.697 20.2774 31.5939 20.2603 31.4903 20.2637C31.3868 20.2671 31.285 20.2908 31.1906 20.3335C31.0962 20.3763 31.0112 20.4372 30.9404 20.5128L21.9646 30.1036C19.9666 32.2388 17.0934 33.2511 14.5751 32.2324C13.4649 31.7814 12.4526 31.2295 11.7698 30.5783" fill="black"/>
</mask>
<g mask="url(#mask0_108_943)">
<path d="M20.5 41C31.8218 41 41 31.8218 41 20.5C41 9.17816 31.8218 0 20.5 0C9.17816 0 0 9.17816 0 20.5C0 31.8218 9.17816 41 20.5 41Z" fill="#FF922C"/>
</g>
</svg>
