<svg width="28" height="29" viewBox="0 0 28 29" fill="none" xmlns="http://www.w3.org/2000/svg">
<path d="M18.9034 20.7657C19.1266 20.4583 19.3648 20.2178 19.6047 19.9744C19.9201 19.6543 20.239 19.3314 20.5332 18.8498C20.6078 18.7291 20.6816 18.6126 20.7546 18.5003C21.017 18.0932 21.2506 17.7322 21.2933 17.3631C21.3486 16.8925 21.3832 14.0666 21.231 13.6387C21.0782 13.2113 20.1987 12.9714 19.8948 13.9288C19.7448 14.4011 19.6975 15.0084 19.6548 15.5597C19.6104 16.1249 19.5712 16.6312 19.4299 16.87C19.1514 17.3417 18.2546 18.5153 18.2546 18.5153L19.0285 17.0465C19.0285 17.0465 19.1462 16.8435 19.0845 16.4576C19.0222 16.0712 18.5556 15.5314 18.3365 15.9605C18.1173 16.389 17.7338 16.776 17.7338 16.776L16.3797 18.4075C16.3797 18.4075 15.9385 18.9796 15.9264 19.2933C15.9224 19.3983 15.8572 19.6313 15.7822 19.8948C15.6986 20.1924 15.6034 20.5292 15.5735 20.7657V21.3383H18.9028L18.9034 20.7657ZM8.17828 20.7657C7.95394 20.4583 7.71518 20.2178 7.47469 19.9744C7.1575 19.6543 6.83801 19.3314 6.54273 18.8498C6.46814 18.7291 6.39413 18.6124 6.3207 18.4998C6.05714 18.0932 5.82357 17.7327 5.78032 17.3636C5.72438 16.8925 5.89681 14.0666 6.04964 13.6387C6.20305 13.2113 7.08541 12.9714 7.3905 13.9288C7.54044 14.4011 7.58831 15.0084 7.63156 15.5597C7.67539 16.1249 7.71518 16.6312 7.85648 16.87C8.13618 17.3417 9.03585 18.5153 9.03585 18.5153L8.2596 17.0465C8.2596 17.0465 8.14137 16.8435 8.20366 16.4576C8.26594 16.0712 8.73423 15.5314 8.95396 15.9605C9.17426 16.389 9.55893 16.776 9.55893 16.776L10.9171 18.4075C10.9171 18.4075 11.36 18.9796 11.3721 19.2933C11.3808 19.5165 11.48 20.3199 11.5365 20.7657V21.3383H8.17828V20.7657ZM11.4102 6.34384C9.81672 6.34384 8.65292 8.0659 8.65292 9.92349C8.65292 14.07 13.8433 16.7247 13.8433 16.7247C13.8433 16.7247 19.0337 13.8988 19.0337 9.92349C19.0337 8.06648 17.8699 6.34384 16.2765 6.34384C15.1703 6.34384 14.3503 7.11663 13.8433 8.21239C13.337 7.11663 12.5163 6.34384 11.4102 6.34384Z" fill="#C0C0C0"/>
<path fill-rule="evenodd" clip-rule="evenodd" d="M3.46094 22.4918C3.46094 22.9506 3.64322 23.3907 3.96768 23.7152C4.29215 24.0396 4.73221 24.2219 5.19107 24.2219H22.4924C22.9513 24.2219 23.3913 24.0396 23.7158 23.7152C24.0403 23.3907 24.2226 22.9506 24.2226 22.4918V5.19042C24.2226 4.73156 24.0403 4.29149 23.7158 3.96703C23.3913 3.64256 22.9513 3.46028 22.4924 3.46028H5.19107C4.73221 3.46028 4.29215 3.64256 3.96768 3.96703C3.64322 4.29149 3.46094 4.73156 3.46094 5.19042V22.4918ZM4.61436 5.19042C4.61436 5.03746 4.67512 4.89077 4.78328 4.78262C4.89143 4.67447 5.03812 4.6137 5.19107 4.6137H22.4924C22.6454 4.6137 22.7921 4.67447 22.9002 4.78262C23.0084 4.89077 23.0691 5.03746 23.0691 5.19042V22.4918C23.0691 22.6447 23.0084 22.7914 22.9002 22.8996C22.7921 23.0077 22.6454 23.0685 22.4924 23.0685H19.0321V22.4918C19.0321 22.3388 18.9714 22.1921 18.8632 22.084C18.7551 21.9758 18.6084 21.9151 18.4554 21.9151H16.1486C15.9956 21.9151 15.8489 21.9758 15.7408 22.084C15.6326 22.1921 15.5719 22.3388 15.5719 22.4918V23.0685H11.5349V22.4918C11.5349 22.3388 11.4741 22.1921 11.366 22.084C11.2578 21.9758 11.1111 21.9151 10.9582 21.9151H8.65134C8.49839 21.9151 8.3517 21.9758 8.24354 22.084C8.13539 22.1921 8.07463 22.3388 8.07463 22.4918V23.0685H5.19107C5.03812 23.0685 4.89143 23.0077 4.78328 22.8996C4.67512 22.7914 4.61436 22.6447 4.61436 22.4918V5.19042Z" fill="#C0C0C0"/>
</svg>
