<svg width="29" height="29" viewBox="0 0 29 29" fill="none" xmlns="http://www.w3.org/2000/svg">
<path d="M11.0599 6.5345C12.5908 3.78917 13.3557 2.4165 14.5 2.4165C15.6443 2.4165 16.4092 3.78917 17.9401 6.5345L18.3365 7.245C18.7715 8.02559 18.989 8.41588 19.3273 8.67325C19.6656 8.93063 20.0885 9.02609 20.9344 9.217L21.7029 9.391C24.6754 10.064 26.1604 10.4 26.5145 11.537C26.8673 12.6728 25.8547 13.8582 23.8283 16.2278L23.3039 16.8404C22.7287 17.5134 22.44 17.8505 22.3107 18.2662C22.1814 18.6831 22.2249 19.1326 22.3119 20.0304L22.3916 20.8484C22.6973 24.0106 22.8508 25.5911 21.9252 26.2932C20.9996 26.9952 19.6076 26.3548 16.826 25.074L16.1047 24.7429C15.3144 24.378 14.9193 24.1967 14.5 24.1967C14.0807 24.1967 13.6856 24.378 12.8953 24.7429L12.1752 25.074C9.39237 26.3548 8.00037 26.9952 7.076 26.2944C6.14921 25.5911 6.30267 24.0106 6.60837 20.8484L6.68812 20.0316C6.77512 19.1326 6.81862 18.6831 6.68812 18.2674C6.56004 17.8505 6.27125 17.5134 5.69608 16.8416L5.17167 16.2278C3.14529 13.8594 2.13271 12.674 2.48554 11.537C2.83837 10.4 4.32583 10.0628 7.29833 9.391L8.06683 9.217C8.91146 9.02609 9.33317 8.93063 9.67271 8.67325C10.0122 8.41588 10.2285 8.02559 10.6635 7.245L11.0599 6.5345Z" stroke="#C3C3C3" stroke-width="1.5"/>
</svg>
