<svg width="31" height="31" viewBox="0 0 31 31" fill="none" xmlns="http://www.w3.org/2000/svg">
<path d="M3.4093 22.4703C3.15666 22.2177 3.0354 21.9179 3.0455 21.5709C3.05561 21.224 3.17687 20.9343 3.4093 20.7019L10.0725 13.944C10.5567 13.4598 11.1567 13.2176 11.8725 13.2176C12.5883 13.2176 13.1883 13.4598 13.6725 13.944L16.9251 17.2282L23.4935 10.7229H21.4725C21.1146 10.7229 20.8148 10.6016 20.5731 10.3591C20.3314 10.1166 20.2102 9.81722 20.2093 9.46101C20.2085 9.1048 20.3297 8.80501 20.5731 8.56164C20.8165 8.31827 21.1163 8.19701 21.4725 8.19785H26.5251C26.883 8.19785 27.1832 8.31911 27.4258 8.56164C27.6683 8.80417 27.7891 9.10396 27.7883 9.46101V14.5136C27.7883 14.8715 27.667 15.1718 27.4245 15.4143C27.182 15.6568 26.8822 15.7776 26.5251 15.7768C26.1681 15.776 25.8683 15.6551 25.6257 15.4143C25.3832 15.1734 25.262 14.8732 25.262 14.5136V12.4926L18.7251 19.0282C18.2409 19.5124 17.6409 19.7545 16.9251 19.7545C16.2093 19.7545 15.6093 19.5124 15.1251 19.0282L11.8725 15.7755L5.17772 22.4703C4.94614 22.7019 4.6514 22.8177 4.29351 22.8177C3.93561 22.8177 3.64087 22.7019 3.4093 22.4703Z" fill="#C0C0C0"/>
</svg>
