<svg width="16" height="16" viewBox="0 0 16 16" fill="none" xmlns="http://www.w3.org/2000/svg">
<g clip-path="url(#clip0_151_114)">
<path d="M7.194 2.102C7.26834 1.95144 7.38331 1.82468 7.52592 1.73604C7.66853 1.64741 7.83309 1.60043 8.001 1.60043C8.16891 1.60043 8.33347 1.64741 8.47608 1.73604C8.6187 1.82468 8.73367 1.95144 8.808 2.102L10.329 5.184L13.73 5.678C13.8963 5.70198 14.0525 5.77201 14.181 5.88017C14.3096 5.98834 14.4052 6.13031 14.4573 6.29004C14.5093 6.44976 14.5156 6.62086 14.4754 6.78397C14.4353 6.94708 14.3502 7.09569 14.23 7.213L11.768 9.613L12.349 13C12.3772 13.1655 12.3586 13.3356 12.2953 13.491C12.2319 13.6465 12.1264 13.7811 11.9905 13.8797C11.8547 13.9783 11.6939 14.037 11.5265 14.0491C11.3591 14.0611 11.1916 14.0261 11.043 13.948L8.001 12.35L4.959 13.95C4.81025 14.0283 4.64255 14.0634 4.47489 14.0512C4.30723 14.0391 4.14632 13.9803 4.01038 13.8814C3.87444 13.7825 3.76891 13.6475 3.70575 13.4918C3.64259 13.336 3.62432 13.1656 3.653 13L4.234 9.613L1.773 7.214C1.65278 7.09676 1.56775 6.94822 1.52754 6.78519C1.48732 6.62215 1.49353 6.45111 1.54544 6.29141C1.59735 6.13172 1.69291 5.98973 1.82131 5.8815C1.94971 5.77328 2.10582 5.70313 2.272 5.679L5.672 5.185L7.194 2.102ZM8 2.726L6.546 5.673C6.48157 5.80389 6.38628 5.91716 6.26834 6.00304C6.1504 6.08892 6.01335 6.14485 5.869 6.166L2.616 6.638L4.97 8.933C5.07425 9.03487 5.15219 9.16054 5.19714 9.29919C5.24208 9.43785 5.25267 9.58534 5.228 9.729L4.673 12.969L7.583 11.439C7.71208 11.3712 7.8557 11.3358 8.0015 11.3358C8.1473 11.3358 8.29092 11.3712 8.42 11.439L11.33 12.969L10.774 9.729C10.7493 9.58534 10.7599 9.43785 10.8049 9.29919C10.8498 9.16054 10.9278 9.03487 11.032 8.933L13.386 6.638L10.133 6.166C9.98865 6.14485 9.8516 6.08892 9.73366 6.00304C9.61573 5.91716 9.52044 5.80389 9.456 5.673L8 2.726ZM0.100002 2.2C0.179567 2.09391 0.298016 2.02378 0.429291 2.00502C0.560567 1.98627 0.693915 2.02043 0.800002 2.1L2.8 3.6C2.90609 3.67956 2.97622 3.79801 2.99498 3.92929C3.01373 4.06056 2.97957 4.19391 2.9 4.3C2.82044 4.40608 2.70199 4.47622 2.57071 4.49497C2.43944 4.51373 2.30609 4.47956 2.2 4.4L0.200002 2.9C0.0939154 2.82043 0.0237809 2.70198 0.0050273 2.57071C-0.0137263 2.43943 0.0204371 2.30608 0.100002 2.2ZM15.2 2.1C15.2525 2.0606 15.3123 2.03194 15.3759 2.01564C15.4395 1.99934 15.5057 1.99574 15.5707 2.00502C15.6357 2.01431 15.6982 2.03631 15.7547 2.06976C15.8112 2.10321 15.8606 2.14747 15.9 2.2C15.9394 2.25253 15.9681 2.3123 15.9844 2.37591C16.0007 2.43951 16.0043 2.50571 15.995 2.57071C15.9857 2.63571 15.9637 2.69824 15.9302 2.75474C15.8968 2.81124 15.8525 2.8606 15.8 2.9L13.8 4.4C13.6939 4.47956 13.5606 4.51373 13.4293 4.49497C13.298 4.47622 13.1796 4.40608 13.1 4.3C13.0204 4.19391 12.9863 4.06056 13.005 3.92929C13.0238 3.79801 13.0939 3.67956 13.2 3.6L15.2 2.1ZM0.100002 12.3C0.139399 12.3525 0.188756 12.3968 0.245255 12.4302C0.301755 12.4637 0.36429 12.4857 0.429291 12.495C0.494292 12.5043 0.560486 12.5006 0.624093 12.4844C0.687699 12.4681 0.747473 12.4394 0.800002 12.4L2.8 10.9C2.90609 10.8204 2.97622 10.702 2.99498 10.5707C3.01373 10.4394 2.97957 10.3061 2.9 10.2C2.82044 10.0939 2.70199 10.0238 2.57071 10.005C2.43944 9.98627 2.30609 10.0204 2.2 10.1L0.200002 11.6C0.0939154 11.6796 0.0237809 11.798 0.0050273 11.9293C-0.0137263 12.0606 0.0204371 12.1939 0.100002 12.3ZM15.2 12.4C15.3061 12.4796 15.4394 12.5137 15.5707 12.495C15.702 12.4762 15.8204 12.4061 15.9 12.3C15.9796 12.1939 16.0137 12.0606 15.995 11.9293C15.9762 11.798 15.9061 11.6796 15.8 11.6L13.8 10.1C13.6939 10.0204 13.5606 9.98627 13.4293 10.005C13.298 10.0238 13.1796 10.0939 13.1 10.2C13.0204 10.3061 12.9863 10.4394 13.005 10.5707C13.0238 10.702 13.0939 10.8204 13.2 10.9L15.2 12.4Z" fill="#7CF3A0"/>
</g>
<defs>
<clipPath id="clip0_151_114">
<rect width="16" height="16" fill="white"/>
</clipPath>
</defs>
</svg>
