<svg width="105" height="22" viewBox="0 0 105 22" fill="none" xmlns="http://www.w3.org/2000/svg">
<path d="M20.1667 11.0002C20.1667 5.94016 16.06 1.8335 11 1.8335C5.94 1.8335 1.83333 5.94016 1.83333 11.0002C1.83333 15.4368 4.98667 19.131 9.16667 19.9835V13.7502H7.33333V11.0002H9.16667V8.7085C9.16667 6.93933 10.6058 5.50016 12.375 5.50016H14.6667V8.25016H12.8333C12.3292 8.25016 11.9167 8.66266 11.9167 9.16683V11.0002H14.6667V13.7502H11.9167V20.121C16.5458 19.6627 20.1667 15.7577 20.1667 11.0002Z" fill="white"/>
<path d="M28.1267 18V10.3917H26.66V8.79667H28.145V8.43C28.145 7.78222 28.2122 7.24444 28.3467 6.81667C28.4933 6.38889 28.6828 6.04667 28.915 5.79C29.1472 5.53333 29.4039 5.34389 29.685 5.22167C29.9661 5.08722 30.2472 5.00167 30.5283 4.965C30.8217 4.92833 31.0967 4.91 31.3533 4.91C31.5367 4.91 31.72 4.92222 31.9033 4.94667C32.0867 4.97111 32.2456 5.00167 32.38 5.03833V6.74333C32.27 6.68222 32.1539 6.63333 32.0317 6.59667C31.9217 6.54778 31.775 6.52333 31.5917 6.52333C31.4083 6.52333 31.225 6.54167 31.0417 6.57833C30.8583 6.60278 30.6933 6.67611 30.5467 6.79833C30.4 6.90833 30.2839 7.07944 30.1983 7.31167C30.1128 7.54389 30.07 7.86167 30.07 8.265V8.79667H32.38V10.3917H30.0517V18H28.1267ZM37.7116 18.275C37.2349 18.275 36.7766 18.2261 36.3366 18.1283C35.8966 18.0428 35.4932 17.89 35.1266 17.67C34.7721 17.45 34.4849 17.1506 34.2649 16.7717C34.0571 16.3806 33.9532 15.8978 33.9532 15.3233C33.9532 14.6389 34.0877 14.0767 34.3566 13.6367C34.6255 13.1967 35.0105 12.8667 35.5116 12.6467C36.0127 12.4267 36.6116 12.3167 37.3082 12.3167C37.7727 12.3167 38.1882 12.3533 38.5549 12.4267C38.9338 12.5 39.2699 12.6039 39.5632 12.7383C39.8688 12.8606 40.1255 13.0011 40.3332 13.16L40.5349 14.425C40.266 14.2417 39.9055 14.0889 39.4532 13.9667C39.001 13.8322 38.5121 13.765 37.9866 13.765C37.2899 13.765 36.7582 13.8872 36.3916 14.1317C36.0371 14.3761 35.8599 14.7428 35.8599 15.2317C35.8599 15.5983 35.9638 15.8978 36.1716 16.13C36.3793 16.35 36.636 16.515 36.9416 16.625C37.2593 16.7228 37.5893 16.7717 37.9316 16.7717C38.6527 16.7717 39.1843 16.7228 39.5266 16.625C39.8688 16.5272 40.0399 16.3011 40.0399 15.9467V12.0967C40.0399 11.4489 39.8443 10.9783 39.4532 10.685C39.0621 10.3794 38.506 10.2267 37.7849 10.2267C37.2716 10.2267 36.7399 10.3122 36.1899 10.4833C35.6399 10.6422 35.1877 10.8683 34.8332 11.1617V9.365C35.1755 9.13278 35.6705 8.94944 36.3182 8.815C36.9782 8.66833 37.6566 8.595 38.3532 8.595C38.6955 8.595 39.0377 8.63167 39.3799 8.705C39.7343 8.76611 40.0643 8.87 40.3699 9.01667C40.6755 9.15111 40.9443 9.34055 41.1766 9.585C41.421 9.81722 41.6105 10.1044 41.7449 10.4467C41.8793 10.7889 41.9466 11.1922 41.9466 11.6567V16.0567C41.9466 16.6556 41.7571 17.12 41.3782 17.45C41.0116 17.7678 40.5105 17.9817 39.8749 18.0917C39.2393 18.2139 38.5182 18.275 37.7116 18.275ZM48.7033 18.1833C48.141 18.1833 47.591 18.1039 47.0533 17.945C46.5155 17.7861 46.0266 17.5294 45.5866 17.175C45.1588 16.8083 44.8166 16.3256 44.5599 15.7267C44.3033 15.1156 44.1749 14.3578 44.1749 13.4533C44.1749 12.5244 44.2971 11.7483 44.5416 11.125C44.786 10.5017 45.1221 10.0067 45.5499 9.64C45.9777 9.26111 46.4605 8.99222 46.9983 8.83333C47.5483 8.67444 48.1105 8.595 48.6849 8.595C49.1738 8.595 49.6627 8.64389 50.1516 8.74167C50.6405 8.82722 51.0927 8.96167 51.5083 9.145V10.8683C51.0927 10.685 50.6771 10.5444 50.2616 10.4467C49.846 10.3367 49.4121 10.2817 48.9599 10.2817C48.0066 10.2817 47.2855 10.52 46.7966 10.9967C46.3199 11.4733 46.0816 12.2433 46.0816 13.3067C46.0816 14.4067 46.3077 15.2133 46.7599 15.7267C47.2244 16.2278 47.976 16.4783 49.0149 16.4783C49.4671 16.4783 49.9071 16.4233 50.3349 16.3133C50.7627 16.1911 51.1599 16.0444 51.5266 15.8733V17.5967C51.0988 17.7922 50.6527 17.9389 50.1883 18.0367C49.7238 18.1344 49.2288 18.1833 48.7033 18.1833ZM57.7066 18.275C56.8022 18.275 56.0139 18.0917 55.3416 17.725C54.6816 17.3583 54.1683 16.8144 53.8016 16.0933C53.4472 15.3722 53.27 14.4922 53.27 13.4533C53.27 11.8522 53.6428 10.6422 54.3883 9.82333C55.1461 8.99222 56.1972 8.57667 57.5416 8.57667C58.5316 8.57667 59.3322 8.79667 59.9433 9.23667C60.5544 9.67667 60.9944 10.2939 61.2633 11.0883C61.5444 11.8706 61.6789 12.7872 61.6666 13.8383H54.425L54.37 12.4083H60.2L59.7416 12.8667C59.705 11.9256 59.5094 11.2411 59.155 10.8133C58.8005 10.3733 58.2444 10.1533 57.4866 10.1533C56.9978 10.1533 56.5822 10.2572 56.24 10.465C55.8978 10.6606 55.635 11.0028 55.4516 11.4917C55.2805 11.9683 55.195 12.6283 55.195 13.4717C55.195 14.4983 55.4333 15.2806 55.91 15.8183C56.3866 16.3439 57.0894 16.6067 58.0183 16.6067C58.4339 16.6067 58.8189 16.57 59.1733 16.4967C59.54 16.4233 59.8761 16.3317 60.1816 16.2217C60.4872 16.0994 60.75 15.9833 60.97 15.8733V17.6517C60.5422 17.835 60.0594 17.9817 59.5216 18.0917C58.9839 18.2139 58.3789 18.275 57.7066 18.275ZM67.7668 18.275C67.2657 18.275 66.7829 18.2444 66.3184 18.1833C65.854 18.1222 65.4384 18.0183 65.0718 17.8717C64.7051 17.7128 64.4118 17.4989 64.1918 17.23C63.984 16.9611 63.8801 16.6128 63.8801 16.185V5.11167H65.7868V10.08L65.2918 9.45667C65.524 9.27333 65.8112 9.12055 66.1534 8.99833C66.5079 8.87611 66.8623 8.77833 67.2168 8.705C67.5834 8.63167 67.8951 8.595 68.1518 8.595C69.5451 8.595 70.5901 9.01055 71.2868 9.84167C71.9834 10.6606 72.3318 11.8156 72.3318 13.3067C72.3318 14.3089 72.1973 15.1339 71.9284 15.7817C71.6718 16.4294 71.3234 16.9367 70.8834 17.3033C70.4557 17.6578 69.9668 17.9083 69.4168 18.055C68.879 18.2017 68.329 18.275 67.7668 18.275ZM67.6751 16.6067C68.3962 16.6067 68.9523 16.46 69.3434 16.1667C69.7345 15.8733 70.0034 15.4883 70.1501 15.0117C70.2968 14.5228 70.3701 13.9789 70.3701 13.38C70.3701 12.6956 70.2784 12.1211 70.0951 11.6567C69.9118 11.1922 69.6368 10.8378 69.2701 10.5933C68.9034 10.3489 68.4329 10.2267 67.8584 10.2267C67.5407 10.2267 67.1923 10.2694 66.8134 10.355C66.4468 10.4406 66.1045 10.575 65.7868 10.7583V15.7083C65.7868 15.9528 65.8845 16.1422 66.0801 16.2767C66.2757 16.4111 66.514 16.5028 66.7951 16.5517C67.0884 16.5883 67.3818 16.6067 67.6751 16.6067ZM78.5102 18.275C77.0191 18.275 75.9069 17.8533 75.1736 17.01C74.4525 16.1667 74.0919 14.9628 74.0919 13.3983C74.0919 11.7361 74.4647 10.52 75.2102 9.75C75.968 8.96778 77.0558 8.57667 78.4736 8.57667C79.488 8.57667 80.3252 8.76611 80.9852 9.145C81.6452 9.51167 82.1341 10.0556 82.4519 10.7767C82.7697 11.4978 82.9286 12.3717 82.9286 13.3983C82.9286 14.9506 82.5436 16.1544 81.7736 17.01C81.0158 17.8533 79.928 18.275 78.5102 18.275ZM78.4919 16.6433C79.1152 16.6433 79.6102 16.5089 79.9769 16.24C80.3436 15.9589 80.6064 15.5739 80.7652 15.085C80.9364 14.5961 81.0219 14.0339 81.0219 13.3983C81.0219 12.6894 80.9364 12.0967 80.7652 11.62C80.5941 11.1433 80.3252 10.7889 79.9586 10.5567C79.5919 10.3122 79.103 10.19 78.4919 10.19C77.8808 10.19 77.3919 10.3183 77.0252 10.575C76.6586 10.8317 76.3958 11.1983 76.2369 11.675C76.078 12.1517 75.9986 12.7261 75.9986 13.3983C75.9986 14.4128 76.188 15.2072 76.5669 15.7817C76.9458 16.3561 77.5875 16.6433 78.4919 16.6433ZM89.1092 18.275C87.6181 18.275 86.5059 17.8533 85.7725 17.01C85.0514 16.1667 84.6909 14.9628 84.6909 13.3983C84.6909 11.7361 85.0637 10.52 85.8092 9.75C86.567 8.96778 87.6548 8.57667 89.0725 8.57667C90.087 8.57667 90.9242 8.76611 91.5842 9.145C92.2442 9.51167 92.7331 10.0556 93.0509 10.7767C93.3687 11.4978 93.5275 12.3717 93.5275 13.3983C93.5275 14.9506 93.1425 16.1544 92.3725 17.01C91.6148 17.8533 90.527 18.275 89.1092 18.275ZM89.0909 16.6433C89.7142 16.6433 90.2092 16.5089 90.5759 16.24C90.9425 15.9589 91.2053 15.5739 91.3642 15.085C91.5353 14.5961 91.6209 14.0339 91.6209 13.3983C91.6209 12.6894 91.5353 12.0967 91.3642 11.62C91.1931 11.1433 90.9242 10.7889 90.5575 10.5567C90.1909 10.3122 89.702 10.19 89.0909 10.19C88.4798 10.19 87.9909 10.3183 87.6242 10.575C87.2575 10.8317 86.9948 11.1983 86.8359 11.675C86.677 12.1517 86.5975 12.7261 86.5975 13.3983C86.5975 14.4128 86.787 15.2072 87.1659 15.7817C87.5448 16.3561 88.1864 16.6433 89.0909 16.6433ZM97.2698 12.665L101.028 8.79667H103.393L98.0948 13.8383L97.2698 12.665ZM97.6732 18H95.7665V5.31333H97.6915L97.6732 18ZM98.5348 12.0417L103.852 18H101.377L97.1782 13.325L98.5348 12.0417Z" fill="white"/>
</svg>
