<svg width="103" height="44" viewBox="0 0 103 44" fill="none" xmlns="http://www.w3.org/2000/svg">
<path d="M3.23693 11.8968C3.82064 11.8968 4.28938 12.0383 4.64314 12.3213C5.01459 12.6043 5.20032 13.0111 5.20032 13.5418C5.20032 14.0901 5.00575 14.5146 4.61661 14.8153C4.24516 15.0983 3.75873 15.2399 3.15734 15.2399C2.57363 15.2399 2.10489 15.0983 1.75113 14.8153C1.39736 14.5323 1.22048 14.1255 1.22048 13.5949C1.22048 13.0465 1.40621 12.6309 1.77766 12.3478C2.1668 12.0471 2.65322 11.8968 3.23693 11.8968ZM4.61661 28.8244C4.61661 29.6911 4.89077 30.2748 5.43911 30.5755C5.2976 30.8408 5.06766 31.0442 4.74927 31.1857C4.43088 31.3272 4.08596 31.398 3.71451 31.398C3.04236 31.398 2.53825 31.2034 2.20218 30.8143C1.8661 30.4251 1.69806 29.8768 1.69806 29.1693V17.4686H4.61661V28.8244ZM8.22872 17.4686L10.6697 17.1502L10.8023 19.5381C11.1384 18.689 11.6514 18.0434 12.3412 17.6012C13.0487 17.159 13.8712 16.9379 14.8087 16.9379C16.2945 16.9379 17.3293 17.3536 17.913 18.1849C18.4967 18.9986 18.7886 20.2456 18.7886 21.926V28.8244C18.7886 29.6911 19.0627 30.2748 19.6111 30.5755C19.4695 30.8408 19.2396 31.0442 18.9212 31.1857C18.6028 31.3272 18.2668 31.398 17.913 31.398C17.2231 31.398 16.7102 31.2034 16.3741 30.8143C16.038 30.4251 15.87 29.8768 15.87 29.1693V22.2974C15.87 21.1831 15.7462 20.3517 15.4986 19.8034C15.2509 19.2551 14.7026 18.9809 13.8536 18.9809C12.7746 18.9809 12.0494 19.4585 11.6779 20.4136C11.3241 21.3688 11.1473 22.5981 11.1473 24.1016V31H8.22872V17.4686ZM22.5116 31.3184V18.6625H20.6278V17.4686H22.5116L22.5912 16.0358C22.7504 13.2765 24.3246 11.8968 27.3139 11.8968C28.4282 11.8968 29.3834 12.0737 30.1794 12.4274C30.993 12.7635 31.3999 13.3384 31.3999 14.152C31.3999 14.7534 31.2141 15.2133 30.8427 15.5317C30.4712 15.8501 29.9671 16.0093 29.3303 16.0093C28.8705 16.0093 28.5167 15.912 28.2691 15.7174C28.4106 15.2929 28.4813 14.8949 28.4813 14.5235C28.4813 14.0636 28.3663 13.7098 28.1364 13.4622C27.9241 13.1969 27.5969 13.0642 27.1547 13.0642C26.4649 13.0642 25.9961 13.3295 25.7485 13.8602C25.5185 14.3731 25.4036 15.0983 25.4036 16.0358V17.4686H28.2956V18.6625H25.4301V31L22.5116 31.3184ZM35.4719 16.9379C37.453 16.9379 38.9211 17.5835 39.8763 18.8748C40.8314 20.1483 41.309 21.8729 41.309 24.0486C41.309 26.3657 40.8491 28.2053 39.9293 29.5673C39.0096 30.9116 37.5238 31.5837 35.4719 31.5837C33.4555 31.5837 31.9785 30.9381 31.0411 29.6469C30.1213 28.3556 29.6614 26.578 29.6614 24.3139C29.6614 22.1205 30.139 20.3429 31.0941 18.9809C32.0493 17.6189 33.5085 16.9379 35.4719 16.9379ZM35.4719 29.9918C36.5686 29.9918 37.285 29.4523 37.621 28.3733C37.9571 27.2943 38.1252 25.897 38.1252 24.1812C38.1252 22.607 37.9394 21.2715 37.568 20.1748C37.2142 19.0782 36.5155 18.5299 35.4719 18.5299C33.7208 18.5299 32.8452 20.4136 32.8452 24.1812C32.8452 25.897 33.0044 27.2943 33.3228 28.3733C33.6589 29.4523 34.3753 29.9918 35.4719 29.9918ZM55.356 31.199C54.4539 31.199 53.7508 31 53.2467 30.602C53.0344 30.3898 52.9283 29.8326 52.9283 28.9305C52.9283 28.0284 52.9681 26.8477 53.0477 25.3884C52.3313 27.2988 51.6017 28.7448 50.8588 29.7265C50.1159 30.7081 49.174 31.199 48.0331 31.199C46.9187 31.199 45.9636 30.7081 45.1676 29.7265C44.3982 28.7448 44.0134 27.1794 44.0134 25.0302C44.0134 22.8811 44.6104 20.9841 45.8044 19.3391C47.0249 17.6941 48.6168 16.8716 50.5802 16.8716C51.5353 16.8716 52.5303 17.243 53.565 17.9859C53.9896 12.8122 54.3743 9.89361 54.7192 9.23031C54.8784 8.93845 55.2498 8.51394 55.8336 7.95676C56.4438 7.39958 56.9479 7.121 57.3459 7.121C57.7439 7.121 57.9429 7.7445 57.9429 8.99152C57.9429 10.4508 57.8102 11.7111 57.5449 12.7724C56.8285 15.5052 56.3775 17.243 56.1917 17.9859C55.8203 20.8514 55.6346 24.221 55.6346 28.0947C55.6346 28.8111 55.7142 29.1693 55.8734 29.1693C56.3509 29.1427 56.9877 28.5856 57.7837 27.4977C58.5796 26.4099 59.3623 25.0037 60.1318 23.2791C60.9277 21.528 61.4053 20.6524 61.5645 20.6524C61.7502 20.6524 61.8431 20.7586 61.8431 20.9708C61.8431 21.7137 61.4584 22.8944 60.689 24.5129C58.5929 28.9703 56.8152 31.199 55.356 31.199ZM50.3414 18.3043C49.625 18.3043 48.9086 18.8748 48.1923 20.0157C47.4759 21.1565 47.1177 22.4832 47.1177 23.9955C47.1177 25.4813 47.3034 26.7018 47.6749 27.6569C48.0729 28.6121 48.5637 29.0897 49.1474 29.0897C50.3414 29.0897 51.7078 26.7018 53.2467 21.926C53.3793 20.4667 53.4457 19.6044 53.4457 19.3391C52.6762 18.6492 51.6415 18.3043 50.3414 18.3043ZM64.5317 31.199C63.0459 31.199 61.8652 30.6418 60.9896 29.5275C60.1141 28.3866 59.6763 27.0998 59.6763 25.667C59.6763 22.775 60.2865 20.5861 61.507 19.1003C62.7275 17.6145 64.3061 16.8716 66.243 16.8716C67.1451 16.8716 67.888 17.1236 68.4717 17.6278C69.0554 18.1053 69.3473 18.7686 69.3473 19.6177C69.3473 21.2096 68.6707 22.5495 67.3176 23.6373C65.9909 24.6986 64.3592 25.2558 62.4224 25.3088C62.5285 26.3436 62.8734 27.2457 63.4571 28.0151C64.0674 28.758 64.7705 29.1295 65.5664 29.1295C66.3624 29.1295 67.0788 28.9438 67.7155 28.5723C68.3523 28.2008 68.936 27.6702 69.4667 26.9804C70.581 25.5211 71.5362 23.8628 72.3321 22.0056C72.5444 21.528 72.7036 21.1831 72.8097 20.9708C72.9424 20.7586 73.075 20.6524 73.2077 20.6524C73.3669 20.6524 73.4465 20.7586 73.4465 20.9708C73.4465 22.2974 72.6373 24.2873 71.0188 26.9406C69.2677 29.7795 67.1053 31.199 64.5317 31.199ZM62.4224 24.3537C63.9878 24.0884 65.1286 23.5842 65.845 22.8413C66.5879 22.0984 66.9594 21.13 66.9594 19.9361C66.9594 18.7421 66.5746 18.1451 65.8052 18.1451C64.8766 18.1451 64.0939 18.7952 63.4571 20.0953C62.8203 21.3688 62.4754 22.7883 62.4224 24.3537ZM84.151 32.3929L85.2256 32.2735C85.4378 32.2735 85.5439 32.3797 85.5439 32.5919C85.5439 32.9634 85.2919 33.242 84.7878 33.4277C84.2837 33.6134 83.7132 33.7063 83.0764 33.7063C81.8825 33.7063 80.8743 33.2287 80.0518 32.2735C79.2558 31.3184 78.1415 29.554 76.7087 26.9804C76.3638 26.4232 76.1913 25.9987 76.1913 25.7068C76.1913 25.3088 76.7485 24.8445 77.8629 24.3139C79.6671 23.3853 80.5692 22.2178 80.5692 20.8116C80.5692 20.4136 80.4232 20.082 80.1314 19.8167C79.866 19.5248 79.5079 19.3789 79.0568 19.3789C78.42 19.3789 77.6639 20.1351 76.7883 21.6474C75.9127 23.1332 75.3158 24.5394 74.9974 25.866C74.7055 27.1661 74.5596 28.5723 74.5596 30.0846C74.5596 30.8275 74.3473 31.199 73.9228 31.199C73.3126 31.199 72.7289 31.1194 72.1717 30.9602C71.6145 30.7745 71.3359 30.549 71.3359 30.2836C71.3359 29.9918 71.4421 28.7315 71.6543 26.5028C71.8666 24.2475 71.986 22.6291 72.0125 21.6474C72.1186 16.2348 72.437 12.0958 72.9677 9.23031C73.0473 8.99152 73.4055 8.58027 74.0422 7.99656C74.7055 7.41285 75.2362 7.121 75.6342 7.121C76.0321 7.121 76.2179 7.62511 76.1913 8.63333C76.1913 9.61502 75.9791 11.7376 75.5546 15.0011C75.13 18.2645 74.8647 21.2494 74.7586 23.9557C75.2362 22.2576 75.9923 20.6524 77.0271 19.1401C78.0884 17.6278 79.1497 16.8716 80.211 16.8716C82.0152 16.8716 82.9173 17.7472 82.9173 19.4983C82.9173 20.6657 82.5723 21.727 81.8825 22.6821C81.1927 23.6108 80.264 24.3669 79.0966 24.9507C78.8578 25.0568 78.7384 25.1762 78.7384 25.3088C78.7384 25.4415 78.7782 25.5742 78.8578 25.7068C80.5294 28.6519 81.9488 30.7214 83.1162 31.9154C83.4346 32.2337 83.7796 32.3929 84.151 32.3929ZM88.281 28.8509L88.3208 30.0846C88.3208 30.8275 88.1086 31.199 87.684 31.199C87.0473 31.199 86.437 31.1194 85.8533 30.9602C85.2696 30.7745 84.9778 30.5357 84.9778 30.2438C84.9778 29.9254 85.0441 28.8774 85.1767 27.0998C85.3359 25.2956 85.4155 23.9424 85.4155 23.0403V20.732C85.4155 13.9398 86.6228 9.61502 89.0372 7.75777C89.5944 7.33325 90.1648 7.121 90.7485 7.121C91.0138 7.121 91.2792 7.41285 91.5445 7.99656C91.8098 8.58027 91.9425 9.33644 91.9425 10.2651C91.9425 12.5468 91.5577 14.6827 90.7883 16.6726C90.0189 18.6625 89.2362 20.1881 88.4402 21.2494C88.4137 21.9127 88.4004 22.9475 88.4004 24.3537C88.5065 24.1945 89.0637 23.2924 90.0719 21.6474C91.0802 20.0024 91.9292 18.7952 92.619 18.0257C93.3354 17.2563 93.9722 16.8716 94.5294 16.8716C95.0865 16.8716 95.5774 17.0573 96.0019 17.4288C96.4529 17.8002 96.6785 18.2645 96.6785 18.8217C96.6785 19.9891 96.5458 21.7137 96.2805 23.9955C96.0417 26.2507 95.9223 27.6835 95.9223 28.2937C95.9223 28.8774 96.0019 29.1693 96.1611 29.1693C96.6121 29.1427 97.2356 28.5856 98.0316 27.4977C98.8276 26.3834 99.6103 24.9639 100.38 23.2393C101.176 21.5147 101.653 20.6524 101.812 20.6524C101.998 20.6524 102.091 20.7586 102.091 20.9708C102.091 21.7137 101.706 22.8944 100.937 24.5129C98.8408 28.9703 97.0764 31.199 95.6437 31.199C94.609 31.199 93.8263 30.9867 93.2956 30.5622C93.1099 30.3765 93.017 29.8989 93.017 29.1295C93.017 28.3335 93.0833 27.06 93.216 25.3088C93.3752 23.5312 93.4548 22.2046 93.4548 21.329C93.4548 20.4534 93.2956 20.0157 92.9772 20.0157C92.6854 20.0157 91.8894 20.931 90.5893 22.7617C89.2892 24.5659 88.5994 25.7201 88.5198 26.2242C88.3606 27.1528 88.281 28.0284 88.281 28.8509ZM90.8679 11.1406C90.8679 10.0263 90.722 9.4691 90.4301 9.4691C89.9525 9.4691 89.4882 10.9416 89.0372 13.8867C88.7984 15.4521 88.6259 17.2696 88.5198 19.3391C90.0852 16.0756 90.8679 13.3428 90.8679 11.1406Z" fill="#C0C0C0"/>
<path d="M4.71684 41.8585C4.4885 41.8585 4.25445 41.83 4.01469 41.7729C3.78064 41.7101 3.56371 41.6017 3.36391 41.4475C3.16982 41.2877 3.01284 41.0622 2.89296 40.7711C2.77308 40.4799 2.71314 40.106 2.71314 39.6493C2.71314 39.1927 2.77308 38.8216 2.89296 38.5362C3.01284 38.245 3.16982 38.0196 3.36391 37.8597C3.56371 37.6999 3.78064 37.5914 4.01469 37.5343C4.25445 37.4715 4.4885 37.4401 4.71684 37.4401C4.93376 37.4401 5.14783 37.4601 5.35905 37.5001C5.57597 37.54 5.78433 37.6 5.98413 37.6799V38.2707C5.79575 38.1908 5.60166 38.1309 5.40186 38.0909C5.20206 38.0509 4.99656 38.031 4.78534 38.031C4.27728 38.031 3.90623 38.1594 3.67218 38.4163C3.44383 38.6732 3.32966 39.0842 3.32966 39.6493C3.32966 40.2202 3.44383 40.6341 3.67218 40.8909C3.90623 41.1421 4.27728 41.2677 4.78534 41.2677C4.99656 41.2677 5.20206 41.2477 5.40186 41.2078C5.60166 41.1678 5.79575 41.1079 5.98413 41.0279V41.6273C5.78433 41.7016 5.57597 41.7586 5.35905 41.7986C5.14783 41.8386 4.93376 41.8585 4.71684 41.8585ZM7.998 41.79V37.8597C8.0665 37.8312 8.1978 37.7826 8.39189 37.7141C8.59168 37.6456 8.82859 37.5828 9.1026 37.5258C9.38232 37.4687 9.6706 37.4401 9.96744 37.4401C10.0131 37.4401 10.0588 37.4458 10.1044 37.4573C10.1501 37.4687 10.1958 37.4801 10.2415 37.4915V38.0395C10.093 38.0224 9.94746 38.0138 9.80475 38.0138C9.66774 38.0138 9.53359 38.0224 9.4023 38.0395C9.271 38.0509 9.1397 38.0681 9.00841 38.0909C8.87711 38.1137 8.74581 38.1366 8.61452 38.1594V41.79H7.998ZM13.545 41.9185C13.1396 41.9185 12.7886 41.8357 12.4917 41.6702C12.1949 41.4989 11.9665 41.2449 11.8067 40.9081C11.6469 40.5713 11.5669 40.1517 11.5669 39.6493C11.5669 38.9129 11.7325 38.3621 12.0636 37.9967C12.4004 37.6257 12.8599 37.4401 13.4422 37.4401C13.8989 37.4401 14.2642 37.5429 14.5382 37.7484C14.818 37.9539 15.0178 38.2308 15.1376 38.579C15.2575 38.9272 15.3146 39.3211 15.3089 39.7607H11.8752L11.918 39.1955H14.9064L14.6667 39.2811C14.6496 38.853 14.5411 38.5333 14.3413 38.3221C14.1472 38.1109 13.8475 38.0053 13.4422 38.0053C13.1625 38.0053 12.9284 38.0567 12.74 38.1594C12.5574 38.2622 12.4204 38.442 12.329 38.6989C12.2377 38.95 12.192 39.304 12.192 39.7607C12.192 40.2801 12.3119 40.6769 12.5517 40.9509C12.7971 41.2192 13.1396 41.3533 13.5792 41.3533C13.7904 41.3533 13.9845 41.3391 14.1615 41.3105C14.3384 41.2763 14.5011 41.2306 14.6496 41.1735C14.798 41.1164 14.9293 41.0536 15.0434 40.9851V41.6188C14.8379 41.7158 14.6096 41.79 14.3584 41.8414C14.113 41.8928 13.8418 41.9185 13.545 41.9185ZM18.7929 41.9185C18.6045 41.9185 18.4133 41.8985 18.2192 41.8585C18.0308 41.8186 17.8538 41.7501 17.6883 41.653C17.5284 41.556 17.3971 41.4247 17.2944 41.2591C17.1973 41.0879 17.1488 40.8738 17.1488 40.6169C17.1488 40.263 17.2145 39.9804 17.3458 39.7692C17.4828 39.5523 17.6683 39.3982 17.9023 39.3068C18.1421 39.2098 18.4161 39.1613 18.7244 39.1613C18.9584 39.1613 19.1611 39.1755 19.3323 39.2041C19.5036 39.2326 19.6549 39.2754 19.7862 39.3325C19.9232 39.3839 20.0459 39.4438 20.1544 39.5123L20.2742 40.0775C20.1429 39.9804 19.9517 39.8977 19.7005 39.8292C19.4551 39.7549 19.1839 39.7178 18.8871 39.7178C18.5274 39.7178 18.2506 39.7863 18.0565 39.9233C17.8624 40.0604 17.7653 40.2602 17.7653 40.5227C17.7653 40.734 17.8224 40.9024 17.9366 41.0279C18.0565 41.1535 18.2049 41.242 18.3819 41.2934C18.5645 41.3448 18.7501 41.3705 18.9384 41.3705C19.3095 41.3705 19.5892 41.3448 19.7776 41.2934C19.9717 41.2363 20.0687 41.1107 20.0687 40.9166V38.9558C20.0687 38.6247 19.9717 38.382 19.7776 38.2279C19.5835 38.0738 19.3066 37.9967 18.947 37.9967C18.7187 37.9967 18.4761 38.031 18.2192 38.0995C17.968 38.1623 17.7511 38.265 17.5684 38.4077V37.7912C17.7454 37.677 17.9823 37.5914 18.2791 37.5343C18.576 37.4715 18.8642 37.4401 19.144 37.4401C19.3323 37.4401 19.5064 37.4601 19.6663 37.5001C19.8261 37.5343 19.9688 37.5886 20.0944 37.6628C20.22 37.7313 20.3256 37.8226 20.4112 37.9368C20.5026 38.0452 20.5711 38.1737 20.6168 38.3221C20.6681 38.4648 20.6938 38.6275 20.6938 38.8102V40.8824C20.6938 41.1849 20.6025 41.4104 20.4198 41.5588C20.2428 41.7073 20.0088 41.8043 19.7177 41.85C19.4322 41.8956 19.124 41.9185 18.7929 41.9185ZM24.262 41.8585C23.9595 41.8585 23.7055 41.7672 23.4999 41.5845C23.2944 41.3962 23.1917 41.1193 23.1917 40.7539V38.0823H22.4467V37.5172H23.1917V36.3098H23.8082V37.5172H24.9128V38.0823H23.8082V40.557C23.8082 40.7968 23.8453 40.9766 23.9195 41.0965C23.9937 41.2163 24.145 41.2763 24.3734 41.2763C24.4761 41.2763 24.576 41.2677 24.673 41.2506C24.7701 41.2277 24.85 41.2021 24.9128 41.1735V41.7558C24.8329 41.7843 24.7301 41.8072 24.6045 41.8243C24.4847 41.8471 24.3705 41.8585 24.262 41.8585ZM28.64 41.9185C27.9721 41.9185 27.4755 41.7215 27.1501 41.3276C26.8304 40.9281 26.6706 40.3743 26.6706 39.6665C26.6706 38.9244 26.839 38.3678 27.1758 37.9967C27.5183 37.6257 28.0007 37.4401 28.6229 37.4401C29.0853 37.4401 29.4621 37.5343 29.7532 37.7227C30.0443 37.9054 30.2584 38.1651 30.3954 38.5019C30.5324 38.833 30.6009 39.2212 30.6009 39.6665C30.6009 40.3686 30.4297 40.9195 30.0871 41.3191C29.7503 41.7187 29.268 41.9185 28.64 41.9185ZM28.6315 41.3533C28.9797 41.3533 29.2508 41.2791 29.4449 41.1307C29.639 40.9766 29.776 40.7739 29.856 40.5227C29.9416 40.2659 29.9844 39.9804 29.9844 39.6665C29.9844 39.3297 29.9416 39.0385 29.856 38.7931C29.7703 38.5419 29.6276 38.3478 29.4278 38.2108C29.2337 38.0738 28.9683 38.0053 28.6315 38.0053C28.289 38.0053 28.0207 38.0795 27.8266 38.2279C27.6325 38.3763 27.4926 38.5761 27.407 38.8273C27.3271 39.0728 27.2871 39.3525 27.2871 39.6665C27.2871 40.1688 27.387 40.577 27.5868 40.8909C27.7866 41.1992 28.1348 41.3533 28.6315 41.3533ZM32.6161 41.79V37.8597C32.6846 37.8312 32.8159 37.7826 33.0099 37.7141C33.2097 37.6456 33.4466 37.5828 33.7207 37.5258C34.0004 37.4687 34.2887 37.4401 34.5855 37.4401C34.6312 37.4401 34.6768 37.4458 34.7225 37.4573C34.7682 37.4687 34.8138 37.4801 34.8595 37.4915V38.0395C34.7111 38.0224 34.5655 38.0138 34.4228 38.0138C34.2858 38.0138 34.1516 38.0224 34.0204 38.0395C33.8891 38.0509 33.7578 38.0681 33.6265 38.0909C33.4952 38.1137 33.3639 38.1366 33.2326 38.1594V41.79H32.6161ZM43.7391 41.79L40.9733 38.4934C40.8477 38.3392 40.7221 38.1537 40.5965 37.9368C40.4709 37.7199 40.4081 37.5115 40.4081 37.3117C40.4081 37.0719 40.4652 36.855 40.5794 36.6609C40.6993 36.4668 40.8563 36.3127 41.0503 36.1985C41.2501 36.0786 41.4671 36.0187 41.7011 36.0187C41.9466 36.0187 42.1664 36.0758 42.3605 36.19C42.5545 36.2984 42.7087 36.4497 42.8228 36.6438C42.9427 36.8322 43.0027 37.0434 43.0027 37.2774C43.0027 37.4887 42.957 37.6742 42.8657 37.834C42.7743 37.9939 42.643 38.1423 42.4718 38.2793C42.3005 38.4106 42.095 38.5447 41.8553 38.6817L41.547 38.305C41.8096 38.1623 42.0037 38.0338 42.1293 37.9197C42.2548 37.8055 42.3348 37.697 42.369 37.5943C42.409 37.4858 42.429 37.3831 42.429 37.286C42.429 37.0976 42.3605 36.9435 42.2235 36.8236C42.0864 36.698 41.918 36.6352 41.7182 36.6352C41.5242 36.6352 41.3558 36.7037 41.213 36.8407C41.076 36.972 41.0075 37.1319 41.0075 37.3203C41.0075 37.3945 41.0418 37.4915 41.1103 37.6114C41.1788 37.7313 41.2587 37.854 41.35 37.9796C41.4471 38.1052 41.5384 38.2165 41.6241 38.3135L44.544 41.79H43.7391ZM41.6069 41.8585C41.2815 41.8585 41.0047 41.8043 40.7763 41.6958C40.548 41.5874 40.3625 41.4475 40.2198 41.2763C40.0828 41.105 39.98 40.9252 39.9115 40.7368C39.8487 40.5484 39.8173 40.3743 39.8173 40.2145C39.8173 40.0318 39.8516 39.8377 39.9201 39.6322C39.9943 39.4267 40.1227 39.2212 40.3054 39.0157C40.4938 38.8045 40.7564 38.6075 41.0932 38.4249L41.4956 38.8444C41.1874 39.01 40.9562 39.1784 40.802 39.3496C40.6479 39.5209 40.5451 39.6807 40.4938 39.8292C40.4481 39.9719 40.4253 40.0946 40.4253 40.1974C40.4253 40.2716 40.4424 40.3686 40.4766 40.4885C40.5109 40.6027 40.5708 40.7197 40.6565 40.8396C40.7421 40.9594 40.8648 41.0593 41.0247 41.1393C41.1845 41.2192 41.3872 41.2591 41.6326 41.2591C41.9009 41.2591 42.1492 41.1935 42.3776 41.0622C42.6059 40.9252 42.7914 40.7796 42.9342 40.6255L43.3195 41.0622C43.1882 41.1992 43.0341 41.3276 42.8571 41.4475C42.6801 41.5674 42.486 41.6673 42.2748 41.7472C42.0636 41.8214 41.841 41.8585 41.6069 41.8585ZM43.191 40.2316C43.2538 40.1174 43.3081 40.0033 43.3537 39.8891C43.3994 39.7692 43.4365 39.6579 43.4651 39.5551C43.4993 39.4524 43.525 39.3696 43.5421 39.3068H44.0987C44.0645 39.4952 44.0045 39.7121 43.9189 39.9576C43.8333 40.1974 43.7191 40.4343 43.5764 40.6683L43.191 40.2316ZM51.5029 41.8585C51.2745 41.8585 51.0405 41.83 50.8007 41.7729C50.5667 41.7101 50.3497 41.6017 50.1499 41.4475C49.9558 41.2877 49.7989 41.0622 49.679 40.7711C49.5591 40.4799 49.4992 40.106 49.4992 39.6493C49.4992 39.1927 49.5591 38.8216 49.679 38.5362C49.7989 38.245 49.9558 38.0196 50.1499 37.8597C50.3497 37.6999 50.5667 37.5914 50.8007 37.5343C51.0405 37.4715 51.2745 37.4401 51.5029 37.4401C51.7198 37.4401 51.9338 37.4601 52.1451 37.5001C52.362 37.54 52.5703 37.6 52.7701 37.6799V38.2707C52.5818 38.1908 52.3877 38.1309 52.1879 38.0909C51.9881 38.0509 51.7826 38.031 51.5714 38.031C51.0633 38.031 50.6922 38.1594 50.4582 38.4163C50.2298 38.6732 50.1157 39.0842 50.1157 39.6493C50.1157 40.2202 50.2298 40.6341 50.4582 40.8909C50.6922 41.1421 51.0633 41.2677 51.5714 41.2677C51.7826 41.2677 51.9881 41.2477 52.1879 41.2078C52.3877 41.1678 52.5818 41.1079 52.7701 41.0279V41.6273C52.5703 41.7016 52.362 41.7586 52.1451 41.7986C51.9338 41.8386 51.7198 41.8585 51.5029 41.8585ZM54.784 41.79V37.8597C54.8525 37.8312 54.9838 37.7826 55.1779 37.7141C55.3777 37.6456 55.6146 37.5828 55.8886 37.5258C56.1683 37.4687 56.4566 37.4401 56.7535 37.4401C56.7991 37.4401 56.8448 37.4458 56.8905 37.4573C56.9361 37.4687 56.9818 37.4801 57.0275 37.4915V38.0395C56.879 38.0224 56.7335 38.0138 56.5908 38.0138C56.4538 38.0138 56.3196 38.0224 56.1883 38.0395C56.057 38.0509 55.9257 38.0681 55.7944 38.0909C55.6631 38.1137 55.5318 38.1366 55.4005 38.1594V41.79H54.784ZM60.331 41.9185C59.9257 41.9185 59.5746 41.8357 59.2777 41.6702C58.9809 41.4989 58.7526 41.2449 58.5927 40.9081C58.4329 40.5713 58.353 40.1517 58.353 39.6493C58.353 38.9129 58.5185 38.3621 58.8496 37.9967C59.1864 37.6257 59.6459 37.4401 60.2282 37.4401C60.6849 37.4401 61.0502 37.5429 61.3243 37.7484C61.604 37.9539 61.8038 38.2308 61.9237 38.579C62.0435 38.9272 62.1006 39.3211 62.0949 39.7607H58.6612L58.704 39.1955H61.6925L61.4527 39.2811C61.4356 38.853 61.3271 38.5333 61.1273 38.3221C60.9332 38.1109 60.6335 38.0053 60.2282 38.0053C59.9485 38.0053 59.7144 38.0567 59.5261 38.1594C59.3434 38.2622 59.2064 38.442 59.1151 38.6989C59.0237 38.95 58.978 39.304 58.978 39.7607C58.978 40.2801 59.0979 40.6769 59.3377 40.9509C59.5832 41.2192 59.9257 41.3533 60.3652 41.3533C60.5764 41.3533 60.7705 41.3391 60.9475 41.3105C61.1245 41.2763 61.2871 41.2306 61.4356 41.1735C61.584 41.1164 61.7153 41.0536 61.8295 40.9851V41.6188C61.624 41.7158 61.3956 41.79 61.1444 41.8414C60.899 41.8928 60.6278 41.9185 60.331 41.9185ZM65.5789 41.9185C65.3905 41.9185 65.1993 41.8985 65.0052 41.8585C64.8168 41.8186 64.6398 41.7501 64.4743 41.653C64.3145 41.556 64.1832 41.4247 64.0804 41.2591C63.9834 41.0879 63.9348 40.8738 63.9348 40.6169C63.9348 40.263 64.0005 39.9804 64.1318 39.7692C64.2688 39.5523 64.4543 39.3982 64.6884 39.3068C64.9281 39.2098 65.2021 39.1613 65.5104 39.1613C65.7444 39.1613 65.9471 39.1755 66.1184 39.2041C66.2896 39.2326 66.4409 39.2754 66.5722 39.3325C66.7092 39.3839 66.8319 39.4438 66.9404 39.5123L67.0603 40.0775C66.929 39.9804 66.7377 39.8977 66.4866 39.8292C66.2411 39.7549 65.9699 39.7178 65.6731 39.7178C65.3134 39.7178 65.0366 39.7863 64.8425 39.9233C64.6484 40.0604 64.5514 40.2602 64.5514 40.5227C64.5514 40.734 64.6084 40.9024 64.7226 41.0279C64.8425 41.1535 64.9909 41.242 65.1679 41.2934C65.3506 41.3448 65.5361 41.3705 65.7245 41.3705C66.0955 41.3705 66.3752 41.3448 66.5636 41.2934C66.7577 41.2363 66.8548 41.1107 66.8548 40.9166V38.9558C66.8548 38.6247 66.7577 38.382 66.5636 38.2279C66.3695 38.0738 66.0927 37.9967 65.733 37.9967C65.5047 37.9967 65.2621 38.031 65.0052 38.0995C64.754 38.1623 64.5371 38.265 64.3544 38.4077V37.7912C64.5314 37.677 64.7683 37.5914 65.0651 37.5343C65.362 37.4715 65.6503 37.4401 65.93 37.4401C66.1184 37.4401 66.2925 37.4601 66.4523 37.5001C66.6121 37.5343 66.7549 37.5886 66.8804 37.6628C67.006 37.7313 67.1116 37.8226 67.1973 37.9368C67.2886 38.0452 67.3571 38.1737 67.4028 38.3221C67.4542 38.4648 67.4798 38.6275 67.4798 38.8102V40.8824C67.4798 41.1849 67.3885 41.4104 67.2058 41.5588C67.0289 41.7073 66.7948 41.8043 66.5037 41.85C66.2183 41.8956 65.91 41.9185 65.5789 41.9185ZM71.0481 41.8585C70.7455 41.8585 70.4915 41.7672 70.286 41.5845C70.0805 41.3962 69.9777 41.1193 69.9777 40.7539V38.0823H69.2327V37.5172H69.9777V36.3098H70.5942V37.5172H71.6988V38.0823H70.5942V40.557C70.5942 40.7968 70.6313 40.9766 70.7055 41.0965C70.7798 41.2163 70.931 41.2763 71.1594 41.2763C71.2621 41.2763 71.362 41.2677 71.4591 41.2506C71.5561 41.2277 71.636 41.2021 71.6988 41.1735V41.7558C71.6189 41.7843 71.5162 41.8072 71.3906 41.8243C71.2707 41.8471 71.1565 41.8585 71.0481 41.8585ZM73.7049 41.79V37.5172H74.3214V41.79H73.7049ZM73.6707 36.7551V36.0786H74.3557V36.7551H73.6707ZM78.3394 41.9185C77.6715 41.9185 77.1749 41.7215 76.8495 41.3276C76.5298 40.9281 76.37 40.3743 76.37 39.6665C76.37 38.9244 76.5384 38.3678 76.8752 37.9967C77.2177 37.6257 77.7001 37.4401 78.3223 37.4401C78.7847 37.4401 79.1614 37.5343 79.4526 37.7227C79.7437 37.9054 79.9578 38.1651 80.0948 38.5019C80.2318 38.833 80.3003 39.2212 80.3003 39.6665C80.3003 40.3686 80.129 40.9195 79.7865 41.3191C79.4497 41.7187 78.9673 41.9185 78.3394 41.9185ZM78.3308 41.3533C78.6791 41.3533 78.9502 41.2791 79.1443 41.1307C79.3384 40.9766 79.4754 40.7739 79.5553 40.5227C79.641 40.2659 79.6838 39.9804 79.6838 39.6665C79.6838 39.3297 79.641 39.0385 79.5553 38.7931C79.4697 38.5419 79.327 38.3478 79.1272 38.2108C78.9331 38.0738 78.6676 38.0053 78.3308 38.0053C77.9883 38.0053 77.72 38.0795 77.5259 38.2279C77.3319 38.3763 77.192 38.5761 77.1064 38.8273C77.0264 39.0728 76.9865 39.3525 76.9865 39.6665C76.9865 40.1688 77.0864 40.577 77.2862 40.8909C77.486 41.1992 77.8342 41.3533 78.3308 41.3533ZM82.3154 37.8597C82.4524 37.7912 82.5923 37.7313 82.735 37.6799C82.8834 37.6228 83.0318 37.5771 83.1803 37.5429C83.3344 37.5086 83.4885 37.4829 83.6427 37.4658C83.8025 37.4487 83.9623 37.4401 84.1222 37.4401C84.5389 37.4401 84.87 37.5029 85.1155 37.6285C85.3609 37.7484 85.5379 37.9254 85.6464 38.1594C85.7605 38.3935 85.8176 38.676 85.8176 39.0071V41.79H85.2011V39.0071C85.2011 38.9044 85.1868 38.7959 85.1583 38.6817C85.1354 38.5676 85.0869 38.4591 85.0127 38.3564C84.9385 38.2479 84.8243 38.1623 84.6702 38.0995C84.5161 38.031 84.3106 37.9967 84.0537 37.9967C83.8767 37.9967 83.694 38.011 83.5057 38.0395C83.3173 38.0681 83.126 38.1109 82.9319 38.168V41.79H82.3154V37.8597ZM89.2542 41.9185C88.9459 41.9185 88.6862 41.8871 88.475 41.8243C88.2695 41.7615 88.0554 41.673 87.8327 41.5588V40.9081C88.0097 41.0051 88.1667 41.0879 88.3037 41.1564C88.4407 41.2249 88.5806 41.2763 88.7233 41.3105C88.866 41.3391 89.0287 41.3533 89.2114 41.3533C89.4968 41.3533 89.728 41.2905 89.9049 41.165C90.0876 41.0394 90.179 40.8767 90.179 40.6769C90.179 40.517 90.1333 40.3943 90.042 40.3087C89.9563 40.223 89.845 40.1517 89.708 40.0946C89.571 40.0375 89.4283 39.9776 89.2799 39.9148C89.1143 39.8691 88.9459 39.8206 88.7747 39.7692C88.6091 39.7121 88.455 39.6408 88.3123 39.5551C88.1753 39.4638 88.0639 39.3496 87.9783 39.2126C87.8927 39.0699 87.8499 38.8872 87.8499 38.6646C87.8499 38.4477 87.8927 38.2622 87.9783 38.108C88.0697 37.9539 88.1867 37.8283 88.3294 37.7313C88.4721 37.6285 88.6319 37.5543 88.8089 37.5086C88.9859 37.463 89.1628 37.4401 89.3398 37.4401C89.5967 37.4401 89.8165 37.4744 89.9991 37.5429C90.1818 37.6114 90.3702 37.6885 90.5643 37.7741V38.3906C90.3474 38.2764 90.1533 38.1851 89.982 38.1166C89.8108 38.0424 89.6081 38.0053 89.3741 38.0053C89.14 38.0053 88.9288 38.0538 88.7404 38.1508C88.5577 38.2422 88.4664 38.3849 88.4664 38.579C88.4664 38.7388 88.5121 38.8673 88.6034 38.9643C88.7004 39.0557 88.826 39.1299 88.9802 39.1869C89.1343 39.2383 89.2998 39.2897 89.4768 39.3411C89.6195 39.3867 89.7679 39.4381 89.9221 39.4952C90.0762 39.5466 90.2189 39.6179 90.3502 39.7093C90.4815 39.7949 90.5871 39.9091 90.667 40.0518C90.7527 40.1945 90.7955 40.3772 90.7955 40.5998C90.7955 40.9024 90.7184 41.1535 90.5643 41.3533C90.4102 41.5474 90.2132 41.6901 89.9734 41.7815C89.7394 41.8728 89.4996 41.9185 89.2542 41.9185Z" fill="#C0C0C0"/>
</svg>
