<svg width="94" height="29" viewBox="0 0 94 29" fill="none" xmlns="http://www.w3.org/2000/svg">
<path d="M35.214 7.6561C35.5606 7.6561 35.839 7.74012 36.049 7.90818C36.2696 8.07624 36.3799 8.31782 36.3799 8.63293C36.3799 8.95854 36.2644 9.21063 36.0333 9.38919C35.8127 9.55725 35.5239 9.64128 35.1667 9.64128C34.8201 9.64128 34.5418 9.55725 34.3317 9.38919C34.1216 9.22113 34.0166 8.97955 34.0166 8.66444C34.0166 8.33883 34.1269 8.092 34.3475 7.92394C34.5785 7.74538 34.8674 7.6561 35.214 7.6561ZM36.0333 17.7081C36.0333 18.2227 36.1961 18.5694 36.5217 18.7479C36.4377 18.9055 36.3011 19.0263 36.1121 19.1103C35.923 19.1943 35.7182 19.2363 35.4976 19.2363C35.0985 19.2363 34.7991 19.1208 34.5995 18.8897C34.4 18.6586 34.3002 18.333 34.3002 17.9129V10.9647H36.0333V17.7081ZM38.1782 10.9647L39.6277 10.7757L39.7065 12.1937C39.9061 11.6895 40.2107 11.3061 40.6203 11.0435C41.0405 10.7809 41.5289 10.6496 42.0856 10.6496C42.9679 10.6496 43.5824 10.8965 43.929 11.3901C44.2756 11.8733 44.4489 12.6138 44.4489 13.6116V17.7081C44.4489 18.2227 44.6117 18.5694 44.9373 18.7479C44.8533 18.9055 44.7167 19.0263 44.5277 19.1103C44.3386 19.1943 44.139 19.2363 43.929 19.2363C43.5193 19.2363 43.2147 19.1208 43.0152 18.8897C42.8156 18.6586 42.7158 18.333 42.7158 17.9129V13.8322C42.7158 13.1705 42.6423 12.6768 42.4952 12.3512C42.3482 12.0256 42.0226 11.8628 41.5184 11.8628C40.8777 11.8628 40.447 12.1464 40.2264 12.7136C40.0164 13.2808 39.9113 14.0108 39.9113 14.9036V19H38.1782V10.9647ZM46.6597 19.1891V11.6737H45.5411V10.9647H46.6597L46.707 10.1139C46.8015 8.47538 47.7363 7.6561 49.5114 7.6561C50.1732 7.6561 50.7404 7.76113 51.213 7.9712C51.6962 8.17077 51.9378 8.51214 51.9378 8.99531C51.9378 9.35243 51.8275 9.62552 51.6069 9.81459C51.3863 10.0037 51.087 10.0982 50.7089 10.0982C50.4358 10.0982 50.2257 10.0404 50.0786 9.92488C50.1627 9.67279 50.2047 9.43646 50.2047 9.21588C50.2047 8.94279 50.1364 8.73272 49.9999 8.58567C49.8738 8.42811 49.6795 8.34933 49.4169 8.34933C49.0073 8.34933 48.7289 8.50689 48.5819 8.822C48.4453 9.1266 48.377 9.55725 48.377 10.1139V10.9647H50.0944V11.6737H48.3928V19L46.6597 19.1891ZM54.3559 10.6496C55.5323 10.6496 56.4041 11.033 56.9713 11.7998C57.5385 12.556 57.8221 13.5801 57.8221 14.8721C57.8221 16.2481 57.549 17.3404 57.0028 18.1492C56.4566 18.9475 55.5743 19.3466 54.3559 19.3466C53.1584 19.3466 52.2814 18.9632 51.7247 18.1965C51.1785 17.4297 50.9054 16.3741 50.9054 15.0296C50.9054 13.7272 51.189 12.6716 51.7562 11.8628C52.3234 11.054 53.19 10.6496 54.3559 10.6496ZM54.3559 18.4013C55.0071 18.4013 55.4325 18.0809 55.6321 17.4402C55.8316 16.7995 55.9314 15.9697 55.9314 14.9509C55.9314 14.016 55.8211 13.223 55.6005 12.5718C55.3905 11.9206 54.9756 11.595 54.3559 11.595C53.316 11.595 52.7961 12.7136 52.7961 14.9509C52.7961 15.9697 52.8906 16.7995 53.0797 17.4402C53.2792 18.0809 53.7046 18.4013 54.3559 18.4013ZM66.1634 19.1182C65.6278 19.1182 65.2102 19 64.9109 18.7637C64.7848 18.6376 64.7218 18.3068 64.7218 17.7711C64.7218 17.2354 64.7455 16.5343 64.7927 15.6677C64.3673 16.8021 63.9341 17.6608 63.4929 18.2437C63.0517 18.8267 62.4924 19.1182 61.8149 19.1182C61.1532 19.1182 60.586 18.8267 60.1134 18.2437C59.6565 17.6608 59.428 16.7312 59.428 15.455C59.428 14.1788 59.7825 13.0523 60.4915 12.0755C61.2162 11.0987 62.1616 10.6102 63.3275 10.6102C63.8947 10.6102 64.4855 10.8308 65.1 11.272C65.352 8.19966 65.5805 6.46656 65.7853 6.07268C65.8798 5.89937 66.1004 5.64728 66.447 5.31642C66.8094 4.98555 67.1088 4.82012 67.3451 4.82012C67.5814 4.82012 67.6996 5.19037 67.6996 5.93088C67.6996 6.79743 67.6208 7.54581 67.4633 8.17603C67.0379 9.79883 66.77 10.8308 66.6597 11.272C66.4392 12.9736 66.3289 14.9745 66.3289 17.2748C66.3289 17.7002 66.3761 17.9129 66.4707 17.9129C66.7543 17.8971 67.1324 17.5663 67.6051 16.9203C68.0777 16.2743 68.5425 15.4393 68.9994 14.4152C69.4721 13.3753 69.7557 12.8554 69.8502 12.8554C69.9605 12.8554 70.0156 12.9184 70.0156 13.0445C70.0156 13.4856 69.7872 14.1867 69.3303 15.1478C68.0856 17.7947 67.03 19.1182 66.1634 19.1182ZM63.1857 11.461C62.7603 11.461 62.3349 11.7998 61.9095 12.4773C61.4841 13.1547 61.2714 13.9425 61.2714 14.8406C61.2714 15.7229 61.3817 16.4476 61.6022 17.0148C61.8386 17.582 62.1301 17.8656 62.4767 17.8656C63.1857 17.8656 63.9971 16.4476 64.9109 13.6116C64.9897 12.7451 65.0291 12.233 65.0291 12.0755C64.5721 11.6659 63.9577 11.461 63.1857 11.461ZM71.6122 19.1182C70.7299 19.1182 70.0288 18.7873 69.5088 18.1256C68.9889 17.4481 68.7289 16.684 68.7289 15.8332C68.7289 14.1158 69.0913 12.816 69.8161 11.9337C70.5408 11.0514 71.4783 10.6102 72.6284 10.6102C73.1641 10.6102 73.6052 10.7599 73.9519 11.0593C74.2985 11.3429 74.4718 11.7368 74.4718 12.2409C74.4718 13.1862 74.07 13.9819 73.2665 14.6279C72.4787 15.2581 71.5098 15.589 70.3596 15.6205C70.4226 16.2349 70.6275 16.7706 70.9741 17.2275C71.3365 17.6687 71.754 17.8892 72.2266 17.8892C72.6993 17.8892 73.1247 17.779 73.5028 17.5584C73.881 17.3378 74.2276 17.0227 74.5427 16.6131C75.2044 15.7465 75.7716 14.7618 76.2443 13.6589C76.3703 13.3753 76.4648 13.1705 76.5279 13.0445C76.6066 12.9184 76.6854 12.8554 76.7642 12.8554C76.8587 12.8554 76.906 12.9184 76.906 13.0445C76.906 13.8322 76.4255 15.0139 75.4644 16.5894C74.4245 18.2753 73.1404 19.1182 71.6122 19.1182ZM70.3596 15.0533C71.2892 14.8957 71.9667 14.5964 72.3921 14.1552C72.8332 13.7141 73.0538 13.139 73.0538 12.43C73.0538 11.721 72.8253 11.3665 72.3684 11.3665C71.817 11.3665 71.3522 11.7525 70.9741 12.5245C70.5959 13.2808 70.3911 14.1237 70.3596 15.0533ZM83.2626 19.8272L83.9007 19.7563C84.0267 19.7563 84.0897 19.8193 84.0897 19.9453C84.0897 20.1659 83.94 20.3313 83.6407 20.4416C83.3413 20.5519 83.0026 20.6071 82.6245 20.6071C81.9155 20.6071 81.3168 20.3235 80.8284 19.7563C80.3557 19.1891 79.694 18.1413 78.8432 16.6131C78.6384 16.2822 78.5359 16.0301 78.5359 15.8568C78.5359 15.6205 78.8668 15.3447 79.5285 15.0296C80.5999 14.4782 81.1356 13.785 81.1356 12.9499C81.1356 12.7136 81.0489 12.5166 80.8756 12.3591C80.7181 12.1858 80.5054 12.0991 80.2375 12.0991C79.8594 12.0991 79.4104 12.5482 78.8904 13.4462C78.3705 14.3285 78.016 15.1636 77.8269 15.9513C77.6536 16.7233 77.567 17.5584 77.567 18.4564C77.567 18.8976 77.4409 19.1182 77.1889 19.1182C76.8265 19.1182 76.4799 19.0709 76.149 18.9764C75.8181 18.8661 75.6527 18.7322 75.6527 18.5746C75.6527 18.4013 75.7157 17.6529 75.8418 16.3295C75.9678 14.9902 76.0387 14.0292 76.0545 13.4462C76.1175 10.2321 76.3065 7.77426 76.6217 6.07268C76.6689 5.93088 76.8816 5.68667 77.2598 5.34005C77.6536 4.99343 77.9687 4.82012 78.2051 4.82012C78.4414 4.82012 78.5517 5.11947 78.5359 5.71818C78.5359 6.30113 78.4099 7.56156 78.1578 9.49948C77.9057 11.4374 77.7482 13.2099 77.6851 14.8169C77.9687 13.8086 78.4178 12.8554 79.0322 11.9573C79.6625 11.0593 80.2927 10.6102 80.9229 10.6102C81.9943 10.6102 82.5299 11.1302 82.5299 12.17C82.5299 12.8633 82.3251 13.4935 81.9155 14.0607C81.5058 14.6121 80.9544 15.0611 80.2612 15.4078C80.1194 15.4708 80.0485 15.5417 80.0485 15.6205C80.0485 15.6992 80.0721 15.778 80.1194 15.8568C81.112 17.6056 81.9549 18.8346 82.6481 19.5436C82.8372 19.7326 83.042 19.8272 83.2626 19.8272ZM85.7151 17.7238L85.7387 18.4564C85.7387 18.8976 85.6126 19.1182 85.3606 19.1182C84.9824 19.1182 84.6201 19.0709 84.2734 18.9764C83.9268 18.8661 83.7535 18.7243 83.7535 18.551C83.7535 18.3619 83.7929 17.7396 83.8717 16.684C83.9662 15.6126 84.0135 14.8091 84.0135 14.2734V12.9027C84.0135 8.86927 84.7303 6.30113 86.1641 5.19825C86.4949 4.94617 86.8337 4.82012 87.1803 4.82012C87.3379 4.82012 87.4954 4.99343 87.653 5.34005C87.8105 5.68667 87.8893 6.1357 87.8893 6.68714C87.8893 8.04211 87.6609 9.31042 87.2039 10.4921C86.747 11.6737 86.2823 12.5797 85.8096 13.2099C85.7938 13.6038 85.786 14.2182 85.786 15.0533C85.849 14.9587 86.1798 14.4231 86.7785 13.4462C87.3773 12.4694 87.8814 11.7525 88.2911 11.2956C88.7165 10.8387 89.0946 10.6102 89.4255 10.6102C89.7563 10.6102 90.0478 10.7205 90.2999 10.9411C90.5677 11.1617 90.7016 11.4374 90.7016 11.7683C90.7016 12.4615 90.6229 13.4856 90.4653 14.8406C90.3235 16.1798 90.2526 17.0306 90.2526 17.3929C90.2526 17.7396 90.2999 17.9129 90.3944 17.9129C90.6623 17.8971 91.0325 17.5663 91.5052 16.9203C91.9778 16.2586 92.4426 15.4156 92.8995 14.3915C93.3722 13.3674 93.6558 12.8554 93.7503 12.8554C93.8606 12.8554 93.9158 12.9184 93.9158 13.0445C93.9158 13.4856 93.6873 14.1867 93.2304 15.1478C91.9857 17.7947 90.938 19.1182 90.0872 19.1182C89.4727 19.1182 89.0079 18.9921 88.6928 18.74C88.5825 18.6297 88.5274 18.3462 88.5274 17.8892C88.5274 17.4166 88.5668 16.6603 88.6456 15.6205C88.7401 14.5648 88.7874 13.7771 88.7874 13.2571C88.7874 12.7372 88.6928 12.4773 88.5038 12.4773C88.3305 12.4773 87.8578 13.0208 87.0858 14.1079C86.3138 15.1793 85.9041 15.8647 85.8569 16.164C85.7623 16.7155 85.7151 17.2354 85.7151 17.7238ZM87.2512 7.20707C87.2512 6.54534 87.1646 6.21448 86.9912 6.21448C86.7076 6.21448 86.4319 7.0889 86.1641 8.83775C86.0223 9.76732 85.9199 10.8466 85.8569 12.0755C86.7864 10.1376 87.2512 8.51477 87.2512 7.20707Z" fill="white"/>
<path d="M36.1028 24.9594C35.9672 24.9594 35.8282 24.9424 35.6858 24.9085C35.5468 24.8712 35.418 24.8068 35.2994 24.7153C35.1841 24.6204 35.0909 24.4865 35.0197 24.3136C34.9485 24.1407 34.9129 23.9187 34.9129 23.6475C34.9129 23.3763 34.9485 23.156 35.0197 22.9865C35.0909 22.8136 35.1841 22.6797 35.2994 22.5848C35.418 22.4899 35.5468 22.4255 35.6858 22.3916C35.8282 22.3543 35.9672 22.3356 36.1028 22.3356C36.2316 22.3356 36.3587 22.3475 36.4841 22.3712C36.6129 22.395 36.7367 22.4305 36.8553 22.478V22.8289C36.7434 22.7814 36.6282 22.7458 36.5095 22.7221C36.3909 22.6983 36.2689 22.6865 36.1434 22.6865C35.8417 22.6865 35.6214 22.7628 35.4824 22.9153C35.3468 23.0678 35.279 23.3119 35.279 23.6475C35.279 23.9865 35.3468 24.2323 35.4824 24.3848C35.6214 24.534 35.8417 24.6085 36.1434 24.6085C36.2689 24.6085 36.3909 24.5967 36.5095 24.5729C36.6282 24.5492 36.7434 24.5136 36.8553 24.4662V24.8221C36.7367 24.8662 36.6129 24.9001 36.4841 24.9238C36.3587 24.9475 36.2316 24.9594 36.1028 24.9594ZM38.0512 24.9187V22.5848C38.0919 22.5678 38.1698 22.539 38.2851 22.4983C38.4037 22.4577 38.5444 22.4204 38.7071 22.3865C38.8732 22.3526 39.0444 22.3356 39.2207 22.3356C39.2478 22.3356 39.2749 22.339 39.302 22.3458C39.3292 22.3526 39.3563 22.3594 39.3834 22.3661V22.6916C39.2953 22.6814 39.2088 22.6763 39.1241 22.6763C39.0427 22.6763 38.9631 22.6814 38.8851 22.6916C38.8071 22.6983 38.7292 22.7085 38.6512 22.7221C38.5732 22.7356 38.4953 22.7492 38.4173 22.7628V24.9187H38.0512ZM41.3451 24.995C41.1044 24.995 40.8959 24.9458 40.7197 24.8475C40.5434 24.7458 40.4078 24.595 40.3129 24.395C40.218 24.195 40.1705 23.9458 40.1705 23.6475C40.1705 23.2102 40.2688 22.8831 40.4654 22.6661C40.6654 22.4458 40.9383 22.3356 41.2841 22.3356C41.5553 22.3356 41.7722 22.3966 41.9349 22.5187C42.101 22.6407 42.2197 22.8051 42.2909 23.0119C42.362 23.2187 42.3959 23.4526 42.3926 23.7136H40.3536L40.379 23.378H42.1536L42.0112 23.4289C42.001 23.1746 41.9366 22.9848 41.818 22.8594C41.7027 22.7339 41.5248 22.6712 41.2841 22.6712C41.118 22.6712 40.979 22.7017 40.8671 22.7628C40.7586 22.8238 40.6773 22.9306 40.6231 23.0831C40.5688 23.2322 40.5417 23.4424 40.5417 23.7136C40.5417 24.0221 40.6129 24.2577 40.7553 24.4204C40.901 24.5797 41.1044 24.6594 41.3654 24.6594C41.4909 24.6594 41.6061 24.6509 41.7112 24.634C41.8163 24.6136 41.9129 24.5865 42.001 24.5526C42.0892 24.5187 42.1671 24.4814 42.2349 24.4407V24.817C42.1129 24.8746 41.9773 24.9187 41.8281 24.9492C41.6824 24.9797 41.5214 24.995 41.3451 24.995ZM44.4614 24.995C44.3496 24.995 44.236 24.9831 44.1207 24.9594C44.0089 24.9357 43.9038 24.895 43.8055 24.8373C43.7106 24.7797 43.6326 24.7018 43.5716 24.6034C43.514 24.5017 43.4851 24.3746 43.4851 24.2221C43.4851 24.0119 43.5241 23.8441 43.6021 23.7187C43.6835 23.5899 43.7936 23.4984 43.9326 23.4441C44.075 23.3865 44.2377 23.3577 44.4207 23.3577C44.5597 23.3577 44.6801 23.3661 44.7818 23.3831C44.8835 23.4 44.9733 23.4255 45.0513 23.4594C45.1326 23.4899 45.2055 23.5255 45.2699 23.5661L45.3411 23.9017C45.2631 23.8441 45.1496 23.795 45.0004 23.7543C44.8546 23.7102 44.6936 23.6882 44.5174 23.6882C44.3038 23.6882 44.1394 23.7289 44.0241 23.8102C43.9089 23.8916 43.8513 24.0102 43.8513 24.1662C43.8513 24.2916 43.8851 24.3916 43.9529 24.4662C44.0241 24.5407 44.1123 24.5933 44.2174 24.6238C44.3258 24.6543 44.436 24.6695 44.5479 24.6695C44.7682 24.6695 44.9343 24.6543 45.0462 24.6238C45.1614 24.5899 45.2191 24.5153 45.2191 24.4001V23.2356C45.2191 23.039 45.1614 22.895 45.0462 22.8034C44.9309 22.7119 44.7665 22.6661 44.553 22.6661C44.4174 22.6661 44.2733 22.6865 44.1207 22.7272C43.9716 22.7644 43.8428 22.8255 43.7343 22.9102V22.5441C43.8394 22.4763 43.9801 22.4255 44.1563 22.3916C44.3326 22.3543 44.5038 22.3356 44.6699 22.3356C44.7818 22.3356 44.8852 22.3475 44.9801 22.3712C45.075 22.3916 45.1597 22.4238 45.2343 22.4678C45.3089 22.5085 45.3716 22.5628 45.4224 22.6305C45.4767 22.695 45.5174 22.7712 45.5445 22.8594C45.575 22.9441 45.5902 23.0407 45.5902 23.1492V24.3797C45.5902 24.5594 45.536 24.6933 45.4275 24.7814C45.3224 24.8695 45.1835 24.9272 45.0106 24.9543C44.8411 24.9814 44.658 24.995 44.4614 24.995ZM47.7091 24.9594C47.5295 24.9594 47.3786 24.9051 47.2566 24.7967C47.1345 24.6848 47.0735 24.5204 47.0735 24.3034V22.717H46.6312V22.3814H47.0735V21.6644H47.4396V22.3814H48.0956V22.717H47.4396V24.1865C47.4396 24.3289 47.4617 24.4356 47.5057 24.5068C47.5498 24.578 47.6396 24.6136 47.7752 24.6136C47.8362 24.6136 47.8956 24.6085 47.9532 24.5984C48.0108 24.5848 48.0583 24.5695 48.0956 24.5526V24.8984C48.0481 24.9153 47.9871 24.9289 47.9125 24.939C47.8413 24.9526 47.7735 24.9594 47.7091 24.9594ZM50.3089 24.995C49.9123 24.995 49.6174 24.878 49.4241 24.6441C49.2343 24.4068 49.1394 24.078 49.1394 23.6577C49.1394 23.217 49.2394 22.8865 49.4394 22.6661C49.6428 22.4458 49.9292 22.3356 50.2987 22.3356C50.5733 22.3356 50.797 22.3916 50.9699 22.5034C51.1428 22.6119 51.2699 22.7661 51.3513 22.9661C51.4326 23.1628 51.4733 23.3933 51.4733 23.6577C51.4733 24.0746 51.3716 24.4017 51.1682 24.639C50.9682 24.8763 50.6818 24.995 50.3089 24.995ZM50.3038 24.6594C50.5106 24.6594 50.6716 24.6153 50.7869 24.5272C50.9021 24.4356 50.9835 24.3153 51.0309 24.1662C51.0818 24.0136 51.1072 23.8441 51.1072 23.6577C51.1072 23.4577 51.0818 23.2848 51.0309 23.139C50.9801 22.9899 50.8953 22.8746 50.7767 22.7933C50.6614 22.7119 50.5038 22.6712 50.3038 22.6712C50.1004 22.6712 49.9411 22.7153 49.8258 22.8034C49.7106 22.8916 49.6275 23.0102 49.5767 23.1594C49.5292 23.3051 49.5055 23.4712 49.5055 23.6577C49.5055 23.956 49.5648 24.1984 49.6835 24.3848C49.8021 24.5679 50.0089 24.6594 50.3038 24.6594ZM52.6699 24.9187V22.5848C52.7106 22.5678 52.7886 22.539 52.9038 22.4983C53.0225 22.4577 53.1632 22.4204 53.3259 22.3865C53.492 22.3526 53.6632 22.3356 53.8394 22.3356C53.8665 22.3356 53.8937 22.339 53.9208 22.3458C53.9479 22.3526 53.975 22.3594 54.0021 22.3661V22.6916C53.914 22.6814 53.8276 22.6763 53.7428 22.6763C53.6615 22.6763 53.5818 22.6814 53.5038 22.6916C53.4259 22.6983 53.3479 22.7085 53.2699 22.7221C53.192 22.7356 53.114 22.7492 53.036 22.7628V24.9187H52.6699ZM59.275 24.9187L57.6326 22.9611C57.5581 22.8695 57.4835 22.7594 57.4089 22.6305C57.3343 22.5017 57.297 22.378 57.297 22.2594C57.297 22.117 57.3309 21.9882 57.3987 21.8729C57.4699 21.7577 57.5631 21.6661 57.6784 21.5983C57.797 21.5272 57.9259 21.4916 58.0648 21.4916C58.2106 21.4916 58.3411 21.5255 58.4564 21.5933C58.5716 21.6577 58.6632 21.7475 58.7309 21.8627C58.8021 21.9746 58.8377 22.1 58.8377 22.239C58.8377 22.3644 58.8106 22.4746 58.7564 22.5695C58.7021 22.6644 58.6242 22.7526 58.5225 22.8339C58.4208 22.9119 58.2987 22.9916 58.1564 23.0729L57.9733 22.8492C58.1292 22.7644 58.2445 22.6882 58.3191 22.6204C58.3937 22.5526 58.4411 22.4882 58.4615 22.4272C58.4852 22.3628 58.497 22.3017 58.497 22.2441C58.497 22.1322 58.4564 22.0407 58.375 21.9695C58.2937 21.895 58.1937 21.8577 58.075 21.8577C57.9598 21.8577 57.8598 21.8983 57.775 21.9797C57.6937 22.0577 57.653 22.1526 57.653 22.2644C57.653 22.3085 57.6733 22.3661 57.714 22.4373C57.7547 22.5085 57.8021 22.5814 57.8564 22.656C57.914 22.7306 57.9682 22.7967 58.0191 22.8543L59.753 24.9187H59.275ZM58.0089 24.9594C57.8157 24.9594 57.6513 24.9272 57.5157 24.8628C57.3801 24.7984 57.2699 24.7153 57.1852 24.6136C57.1038 24.5119 57.0428 24.4051 57.0021 24.2933C56.9648 24.1814 56.9462 24.078 56.9462 23.9831C56.9462 23.8746 56.9665 23.7594 57.0072 23.6373C57.0513 23.5153 57.1275 23.3933 57.236 23.2712C57.3479 23.1458 57.5038 23.0289 57.7038 22.9204L57.9428 23.1695C57.7598 23.2678 57.6225 23.3678 57.5309 23.4695C57.4394 23.5712 57.3784 23.6662 57.3479 23.7543C57.3208 23.839 57.3072 23.9119 57.3072 23.9729C57.3072 24.017 57.3174 24.0746 57.3377 24.1458C57.3581 24.2136 57.3937 24.2831 57.4445 24.3543C57.4953 24.4255 57.5682 24.4848 57.6631 24.5323C57.7581 24.5797 57.8784 24.6034 58.0242 24.6034C58.1835 24.6034 58.3309 24.5645 58.4665 24.4865C58.6021 24.4051 58.7123 24.3187 58.7971 24.2272L59.0259 24.4865C58.9479 24.5679 58.8564 24.6441 58.7513 24.7153C58.6462 24.7865 58.5309 24.8458 58.4055 24.8933C58.2801 24.9373 58.1479 24.9594 58.0089 24.9594ZM58.9496 23.9933C58.9869 23.9255 59.0191 23.8577 59.0462 23.7899C59.0733 23.7187 59.0954 23.6526 59.1123 23.5916C59.1326 23.5306 59.1479 23.4814 59.1581 23.4441H59.4886C59.4682 23.556 59.4326 23.6848 59.3818 23.8306C59.331 23.9729 59.2632 24.1136 59.1784 24.2526L58.9496 23.9933ZM63.8853 24.9594C63.7497 24.9594 63.6107 24.9424 63.4684 24.9085C63.3294 24.8712 63.2006 24.8068 63.0819 24.7153C62.9667 24.6204 62.8735 24.4865 62.8023 24.3136C62.7311 24.1407 62.6955 23.9187 62.6955 23.6475C62.6955 23.3763 62.7311 23.156 62.8023 22.9865C62.8735 22.8136 62.9667 22.6797 63.0819 22.5848C63.2006 22.4899 63.3294 22.4255 63.4684 22.3916C63.6107 22.3543 63.7497 22.3356 63.8853 22.3356C64.0141 22.3356 64.1413 22.3475 64.2667 22.3712C64.3955 22.395 64.5192 22.4305 64.6379 22.478V22.8289C64.526 22.7814 64.4108 22.7458 64.2921 22.7221C64.1735 22.6983 64.0514 22.6865 63.926 22.6865C63.6243 22.6865 63.404 22.7628 63.265 22.9153C63.1294 23.0678 63.0616 23.3119 63.0616 23.6475C63.0616 23.9865 63.1294 24.2323 63.265 24.3848C63.404 24.534 63.6243 24.6085 63.926 24.6085C64.0514 24.6085 64.1735 24.5967 64.2921 24.5729C64.4108 24.5492 64.526 24.5136 64.6379 24.4662V24.8221C64.5192 24.8662 64.3955 24.9001 64.2667 24.9238C64.1413 24.9475 64.0141 24.9594 63.8853 24.9594ZM65.8338 24.9187V22.5848C65.8744 22.5678 65.9524 22.539 66.0676 22.4983C66.1863 22.4577 66.327 22.4204 66.4897 22.3865C66.6558 22.3526 66.827 22.3356 67.0032 22.3356C67.0304 22.3356 67.0575 22.339 67.0846 22.3458C67.1117 22.3526 67.1388 22.3594 67.166 22.3661V22.6916C67.0778 22.6814 66.9914 22.6763 66.9066 22.6763C66.8253 22.6763 66.7456 22.6814 66.6677 22.6916C66.5897 22.6983 66.5117 22.7085 66.4338 22.7221C66.3558 22.7356 66.2778 22.7492 66.1999 22.7628V24.9187H65.8338ZM69.1277 24.995C68.887 24.995 68.6785 24.9458 68.5022 24.8475C68.326 24.7458 68.1904 24.595 68.0954 24.395C68.0005 24.195 67.9531 23.9458 67.9531 23.6475C67.9531 23.2102 68.0514 22.8831 68.248 22.6661C68.448 22.4458 68.7209 22.3356 69.0666 22.3356C69.3378 22.3356 69.5548 22.3966 69.7175 22.5187C69.8836 22.6407 70.0022 22.8051 70.0734 23.0119C70.1446 23.2187 70.1785 23.4526 70.1751 23.7136H68.1361L68.1615 23.378H69.9361L69.7938 23.4289C69.7836 23.1746 69.7192 22.9848 69.6005 22.8594C69.4853 22.7339 69.3073 22.6712 69.0666 22.6712C68.9005 22.6712 68.7616 22.7017 68.6497 22.7628C68.5412 22.8238 68.4599 22.9306 68.4056 23.0831C68.3514 23.2322 68.3243 23.4424 68.3243 23.7136C68.3243 24.0221 68.3954 24.2577 68.5378 24.4204C68.6836 24.5797 68.887 24.6594 69.148 24.6594C69.2734 24.6594 69.3887 24.6509 69.4938 24.634C69.5988 24.6136 69.6955 24.5865 69.7836 24.5526C69.8717 24.5187 69.9497 24.4814 70.0175 24.4407V24.817C69.8955 24.8746 69.7599 24.9187 69.6107 24.9492C69.4649 24.9797 69.3039 24.995 69.1277 24.995ZM72.244 24.995C72.1321 24.995 72.0186 24.9831 71.9033 24.9594C71.7914 24.9357 71.6864 24.895 71.5881 24.8373C71.4931 24.7797 71.4152 24.7018 71.3542 24.6034C71.2965 24.5017 71.2677 24.3746 71.2677 24.2221C71.2677 24.0119 71.3067 23.8441 71.3847 23.7187C71.466 23.5899 71.5762 23.4984 71.7152 23.4441C71.8575 23.3865 72.0203 23.3577 72.2033 23.3577C72.3423 23.3577 72.4626 23.3661 72.5643 23.3831C72.666 23.4 72.7559 23.4255 72.8338 23.4594C72.9152 23.4899 72.9881 23.5255 73.0525 23.5661L73.1237 23.9017C73.0457 23.8441 72.9321 23.795 72.783 23.7543C72.6372 23.7102 72.4762 23.6882 72.2999 23.6882C72.0864 23.6882 71.922 23.7289 71.8067 23.8102C71.6914 23.8916 71.6338 24.0102 71.6338 24.1662C71.6338 24.2916 71.6677 24.3916 71.7355 24.4662C71.8067 24.5407 71.8948 24.5933 71.9999 24.6238C72.1084 24.6543 72.2186 24.6695 72.3304 24.6695C72.5508 24.6695 72.7169 24.6543 72.8287 24.6238C72.944 24.5899 73.0016 24.5153 73.0016 24.4001V23.2356C73.0016 23.039 72.944 22.895 72.8287 22.8034C72.7135 22.7119 72.5491 22.6661 72.3355 22.6661C72.1999 22.6661 72.0559 22.6865 71.9033 22.7272C71.7542 22.7644 71.6253 22.8255 71.5169 22.9102V22.5441C71.622 22.4763 71.7626 22.4255 71.9389 22.3916C72.1152 22.3543 72.2864 22.3356 72.4525 22.3356C72.5643 22.3356 72.6677 22.3475 72.7626 22.3712C72.8576 22.3916 72.9423 22.4238 73.0169 22.4678C73.0915 22.5085 73.1542 22.5628 73.205 22.6305C73.2593 22.695 73.2999 22.7712 73.3271 22.8594C73.3576 22.9441 73.3728 23.0407 73.3728 23.1492V24.3797C73.3728 24.5594 73.3186 24.6933 73.2101 24.7814C73.105 24.8695 72.966 24.9272 72.7931 24.9543C72.6237 24.9814 72.4406 24.995 72.244 24.995ZM75.4917 24.9594C75.312 24.9594 75.1612 24.9051 75.0391 24.7967C74.9171 24.6848 74.8561 24.5204 74.8561 24.3034V22.717H74.4137V22.3814H74.8561V21.6644H75.2222V22.3814H75.8781V22.717H75.2222V24.1865C75.2222 24.3289 75.2442 24.4356 75.2883 24.5068C75.3324 24.578 75.4222 24.6136 75.5578 24.6136C75.6188 24.6136 75.6781 24.6085 75.7358 24.5984C75.7934 24.5848 75.8409 24.5695 75.8781 24.5526V24.8984C75.8307 24.9153 75.7697 24.9289 75.6951 24.939C75.6239 24.9526 75.5561 24.9594 75.4917 24.9594ZM77.0694 24.9187V22.3814H77.4355V24.9187H77.0694ZM77.0491 21.9289V21.5272H77.4559V21.9289H77.0491ZM79.8215 24.995C79.4249 24.995 79.1299 24.878 78.9367 24.6441C78.7469 24.4068 78.652 24.078 78.652 23.6577C78.652 23.217 78.752 22.8865 78.952 22.6661C79.1554 22.4458 79.4418 22.3356 79.8113 22.3356C80.0859 22.3356 80.3096 22.3916 80.4825 22.5034C80.6554 22.6119 80.7825 22.7661 80.8638 22.9661C80.9452 23.1628 80.9859 23.3933 80.9859 23.6577C80.9859 24.0746 80.8842 24.4017 80.6808 24.639C80.4808 24.8763 80.1943 24.995 79.8215 24.995ZM79.8164 24.6594C80.0232 24.6594 80.1842 24.6153 80.2994 24.5272C80.4147 24.4356 80.496 24.3153 80.5435 24.1662C80.5944 24.0136 80.6198 23.8441 80.6198 23.6577C80.6198 23.4577 80.5944 23.2848 80.5435 23.139C80.4927 22.9899 80.4079 22.8746 80.2893 22.7933C80.174 22.7119 80.0164 22.6712 79.8164 22.6712C79.613 22.6712 79.4537 22.7153 79.3384 22.8034C79.2232 22.8916 79.1401 23.0102 79.0893 23.1594C79.0418 23.3051 79.0181 23.4712 79.0181 23.6577C79.0181 23.956 79.0774 24.1984 79.196 24.3848C79.3147 24.5679 79.5215 24.6594 79.8164 24.6594ZM82.1825 22.5848C82.2639 22.5441 82.3469 22.5085 82.4317 22.478C82.5198 22.4441 82.6079 22.417 82.6961 22.3966C82.7876 22.3763 82.8791 22.3611 82.9707 22.3509C83.0656 22.3407 83.1605 22.3356 83.2554 22.3356C83.5029 22.3356 83.6995 22.3729 83.8452 22.4475C83.991 22.5187 84.0961 22.6238 84.1605 22.7628C84.2283 22.9017 84.2622 23.0695 84.2622 23.2661V24.9187H83.8961V23.2661C83.8961 23.2051 83.8876 23.1407 83.8707 23.0729C83.8571 23.0051 83.8283 22.9407 83.7842 22.8797C83.7402 22.8153 83.6724 22.7644 83.5808 22.7272C83.4893 22.6865 83.3673 22.6661 83.2147 22.6661C83.1096 22.6661 83.0012 22.6746 82.8893 22.6916C82.7774 22.7085 82.6639 22.7339 82.5486 22.7678V24.9187H82.1825V22.5848ZM86.3029 24.995C86.1198 24.995 85.9656 24.9763 85.8402 24.939C85.7181 24.9018 85.591 24.8492 85.4588 24.7814V24.395C85.5639 24.4526 85.6571 24.5017 85.7385 24.5424C85.8198 24.5831 85.9029 24.6136 85.9876 24.634C86.0724 24.6509 86.169 24.6594 86.2775 24.6594C86.447 24.6594 86.5843 24.6221 86.6893 24.5475C86.7978 24.4729 86.8521 24.3763 86.8521 24.2577C86.8521 24.1628 86.8249 24.0899 86.7707 24.039C86.7198 23.9882 86.6537 23.9458 86.5724 23.9119C86.491 23.878 86.4063 23.8424 86.3181 23.8051C86.2198 23.778 86.1198 23.7492 86.0181 23.7187C85.9198 23.6848 85.8283 23.6424 85.7436 23.5916C85.6622 23.5373 85.5961 23.4695 85.5453 23.3882C85.4944 23.3034 85.469 23.195 85.469 23.0628C85.469 22.9339 85.4944 22.8238 85.5453 22.7322C85.5995 22.6407 85.669 22.5661 85.7537 22.5085C85.8385 22.4475 85.9334 22.4034 86.0385 22.3763C86.1436 22.3492 86.2487 22.3356 86.3537 22.3356C86.5063 22.3356 86.6368 22.356 86.7453 22.3966C86.8537 22.4373 86.9656 22.4831 87.0809 22.5339V22.9C86.9521 22.8322 86.8368 22.778 86.7351 22.7373C86.6334 22.6933 86.5131 22.6712 86.3741 22.6712C86.2351 22.6712 86.1097 22.7 85.9978 22.7577C85.8893 22.8119 85.8351 22.8967 85.8351 23.0119C85.8351 23.1068 85.8622 23.1831 85.9165 23.2407C85.9741 23.295 86.0487 23.339 86.1402 23.3729C86.2317 23.4034 86.33 23.4339 86.4351 23.4645C86.5198 23.4916 86.608 23.5221 86.6995 23.556C86.791 23.5865 86.8758 23.6289 86.9537 23.6831C87.0317 23.7339 87.0944 23.8017 87.1419 23.8865C87.1927 23.9712 87.2182 24.0797 87.2182 24.2119C87.2182 24.3916 87.1724 24.5407 87.0809 24.6594C86.9893 24.7746 86.8724 24.8594 86.73 24.9136C86.591 24.9679 86.4487 24.995 86.3029 24.995Z" fill="white"/>
<path d="M26.8286 15.7825C26.8286 22.8797 20.8228 28.6332 13.4143 28.6332C6.00578 28.6332 0 22.8797 0 15.7825C0 8.68516 6.00578 2.93167 13.4143 2.93167C20.8228 2.93167 26.8286 8.68516 26.8286 15.7825Z" fill="#F8A933"/>
<path d="M13.4141 6.67358C18.6995 6.67358 22.9451 10.7729 22.9454 15.782C22.9454 20.7913 18.6996 24.8904 13.4141 24.8904C8.12865 24.8903 3.88285 20.7912 3.88285 15.782C3.88307 10.7729 8.12879 6.67367 13.4141 6.67358Z" fill="#F8A933" stroke="#2D2D2D" stroke-width="1.05925"/>
<mask id="path-5-outside-1_97_4" maskUnits="userSpaceOnUse" x="10.2306" y="8.71313" width="6" height="15" fill="black">
<rect fill="white" x="10.2306" y="8.71313" width="6" height="15"/>
<path d="M13.4581 10.2468C13.8567 10.2468 14.1408 10.3564 14.3102 10.5757C14.4896 10.7949 14.5793 11.0491 14.5793 11.3381C14.5793 11.6969 14.4697 11.976 14.2504 12.1753C14.0411 12.3646 13.7421 12.4593 13.3534 12.4593C12.9747 12.4593 12.6907 12.3547 12.5013 12.1454C12.3119 11.9261 12.2173 11.672 12.2173 11.383C12.2173 11.0042 12.3319 10.7202 12.5611 10.5308C12.7903 10.3415 13.0893 10.2468 13.4581 10.2468ZM13.5478 13.5805C13.8667 13.5805 14.1159 13.8795 14.2953 14.4775C14.4846 15.0755 14.5793 16.0273 14.5793 17.3329C14.5793 18.9375 14.4647 20.0936 14.2355 20.8012C14.0062 21.5088 13.6574 21.8626 13.189 21.8626C12.8302 21.8626 12.5661 21.6035 12.3967 21.0853C12.2272 20.557 12.1425 19.6401 12.1425 18.3345C12.1425 16.7299 12.2721 15.5389 12.5312 14.7616C12.8003 13.9742 13.1392 13.5805 13.5478 13.5805Z"/>
</mask>
<path d="M13.4581 10.2468C13.8567 10.2468 14.1408 10.3564 14.3102 10.5757C14.4896 10.7949 14.5793 11.0491 14.5793 11.3381C14.5793 11.6969 14.4697 11.976 14.2504 12.1753C14.0411 12.3646 13.7421 12.4593 13.3534 12.4593C12.9747 12.4593 12.6907 12.3547 12.5013 12.1454C12.3119 11.9261 12.2173 11.672 12.2173 11.383C12.2173 11.0042 12.3319 10.7202 12.5611 10.5308C12.7903 10.3415 13.0893 10.2468 13.4581 10.2468ZM13.5478 13.5805C13.8667 13.5805 14.1159 13.8795 14.2953 14.4775C14.4846 15.0755 14.5793 16.0273 14.5793 17.3329C14.5793 18.9375 14.4647 20.0936 14.2355 20.8012C14.0062 21.5088 13.6574 21.8626 13.189 21.8626C12.8302 21.8626 12.5661 21.6035 12.3967 21.0853C12.2272 20.557 12.1425 19.6401 12.1425 18.3345C12.1425 16.7299 12.2721 15.5389 12.5312 14.7616C12.8003 13.9742 13.1392 13.5805 13.5478 13.5805Z" fill="white"/>
<path d="M14.3102 10.5757L13.472 11.2234L13.4811 11.235L13.4904 11.2464L14.3102 10.5757ZM14.2504 12.1753L14.9611 12.9608L14.9629 12.9591L14.2504 12.1753ZM12.5013 12.1454L11.6996 12.8377L11.7076 12.847L11.7158 12.8561L12.5013 12.1454ZM14.2953 14.4775L13.2807 14.7819L13.283 14.7896L13.2854 14.7973L14.2953 14.4775ZM14.2355 20.8012L13.2278 20.4748L13.2278 20.4748L14.2355 20.8012ZM12.3967 21.0853L11.388 21.4088L11.3898 21.4144L12.3967 21.0853ZM12.5312 14.7616L11.5288 14.419L11.5263 14.4266L12.5312 14.7616ZM13.4581 10.2468V11.306C13.5098 11.306 13.5455 11.3096 13.5676 11.3132C13.5896 11.3167 13.5952 11.3197 13.5887 11.3172C13.5816 11.3145 13.5634 11.3064 13.5397 11.2893C13.5156 11.2717 13.4921 11.2493 13.472 11.2234L14.3102 10.5757L15.1484 9.928C14.7013 9.34944 14.0339 9.18754 13.4581 9.18754V10.2468ZM14.3102 10.5757L13.4904 11.2464C13.5116 11.2723 13.5201 11.2882 13.5201 11.3381H14.5793H15.6386C15.6386 10.8099 15.4676 10.3176 15.13 9.90492L14.3102 10.5757ZM14.5793 11.3381H13.5201C13.5201 11.4104 13.509 11.4347 13.5112 11.4292C13.5123 11.4264 13.5154 11.4195 13.5214 11.4107C13.5275 11.402 13.5336 11.3954 13.5379 11.3915L14.2504 12.1753L14.9629 12.9591C15.4489 12.5173 15.6386 11.9271 15.6386 11.3381H14.5793ZM14.2504 12.1753L13.5397 11.3898C13.5598 11.3717 13.5702 11.3719 13.5494 11.3785C13.5247 11.3863 13.4641 11.4001 13.3534 11.4001V12.4593V13.5186C13.9051 13.5186 14.494 13.3834 14.9611 12.9608L14.2504 12.1753ZM13.3534 12.4593V11.4001C13.2589 11.4001 13.222 11.3867 13.2225 11.3869C13.2236 11.3873 13.2328 11.3909 13.2465 11.4C13.2605 11.4092 13.2745 11.4211 13.2868 11.4347L12.5013 12.1454L11.7158 12.8561C12.1681 13.356 12.7826 13.5186 13.3534 13.5186V12.4593ZM12.5013 12.1454L13.303 11.453C13.285 11.4322 13.2813 11.4218 13.2809 11.4205C13.2804 11.4194 13.2765 11.4096 13.2765 11.383H12.2173H11.158C11.158 11.9269 11.3446 12.4266 11.6996 12.8377L12.5013 12.1454ZM12.2173 11.383H13.2765C13.2765 11.2983 13.2895 11.2724 13.2855 11.2822C13.2833 11.2877 13.2779 11.2991 13.2677 11.3131C13.2574 11.3272 13.246 11.339 13.2357 11.3475L12.5611 10.5308L11.8865 9.71419C11.3496 10.1577 11.158 10.782 11.158 11.383H12.2173ZM12.5611 10.5308L13.2357 11.3475C13.2399 11.344 13.2499 11.3362 13.277 11.3276C13.3068 11.3182 13.3636 11.306 13.4581 11.306V10.2468V9.18754C12.904 9.18754 12.3478 9.33314 11.8865 9.71419L12.5611 10.5308ZM13.5478 13.5805V14.6398C13.4545 14.6398 13.3606 14.6161 13.2805 14.574C13.2057 14.5346 13.1682 14.4926 13.1601 14.4829C13.153 14.4744 13.1663 14.4883 13.1919 14.5417C13.2169 14.5941 13.2477 14.672 13.2807 14.7819L14.2953 14.4775L15.3098 14.1732C15.201 13.8103 15.0423 13.4323 14.7876 13.1267C14.5104 12.7941 14.0904 12.5213 13.5478 12.5213V13.5805ZM14.2953 14.4775L13.2854 14.7973C13.4228 15.231 13.5201 16.0448 13.5201 17.3329H14.5793H15.6386C15.6386 16.0098 15.5465 14.92 15.3051 14.1577L14.2953 14.4775ZM14.5793 17.3329H13.5201C13.5201 18.9244 13.402 19.9368 13.2278 20.4748L14.2355 20.8012L15.2432 21.1276C15.5273 20.2504 15.6386 18.9506 15.6386 17.3329H14.5793ZM14.2355 20.8012L13.2278 20.4748C13.1862 20.603 13.1456 20.6952 13.1109 20.759C13.0761 20.8228 13.0523 20.8488 13.0476 20.8536C13.0448 20.8564 13.0608 20.8399 13.097 20.8242C13.1346 20.808 13.169 20.8034 13.189 20.8034V21.8626V22.9219C14.3692 22.9219 14.97 21.9708 15.2432 21.1276L14.2355 20.8012ZM13.189 21.8626V20.8034C13.2299 20.8034 13.2854 20.8114 13.3445 20.836C13.403 20.8604 13.4426 20.8915 13.4636 20.9122C13.4828 20.9309 13.4811 20.9355 13.4666 20.9094C13.452 20.8833 13.4292 20.8348 13.4035 20.7561L12.3967 21.0853L11.3898 21.4144C11.5042 21.7643 11.6828 22.1328 11.98 22.4244C12.3032 22.7415 12.7226 22.9219 13.189 22.9219V21.8626ZM12.3967 21.0853L13.4053 20.7617C13.2914 20.4066 13.2018 19.6386 13.2018 18.3345H12.1425H11.0833C11.0833 19.6417 11.1631 20.7075 11.388 21.4088L12.3967 21.0853ZM12.1425 18.3345H13.2018C13.2018 16.7565 13.3329 15.7062 13.5361 15.0965L12.5312 14.7616L11.5263 14.4266C11.2113 15.3717 11.0833 16.7033 11.0833 18.3345H12.1425ZM12.5312 14.7616L13.5335 15.1041C13.5881 14.9445 13.6405 14.8217 13.6879 14.7297C13.7358 14.6366 13.7721 14.5876 13.79 14.5668C13.8073 14.5467 13.7958 14.5664 13.748 14.5916C13.6946 14.6197 13.6235 14.6398 13.5478 14.6398V13.5805V12.5213C12.9551 12.5213 12.4963 12.8224 12.1844 13.1848C11.8898 13.527 11.684 13.9653 11.5289 14.419L12.5312 14.7616Z" fill="#2D2D2D" mask="url(#path-5-outside-1_97_4)"/>
</svg>
