<svg width="96" height="21" viewBox="0 0 96 21" fill="none" xmlns="http://www.w3.org/2000/svg">
<path d="M28.8261 0.880167C27.3851 1.48119 25.8034 3.18234 25.3043 5.31932C24.6716 8.0257 27.3042 9.168 27.5186 8.79543C27.7752 8.35257 27.0476 8.20495 26.9 6.79904C26.7067 4.98542 27.5502 2.96091 28.6082 2.07168C28.8085 1.90648 28.798 2.13494 28.798 2.56374C28.798 3.32293 28.7558 10.1486 28.7558 11.5721C28.7558 13.5017 28.675 14.1098 28.5344 14.7108C28.3868 15.3224 28.1548 15.7336 28.3305 15.8918C28.5274 16.0675 29.3709 15.6457 29.8594 14.9674C30.4429 14.1519 30.6468 13.1713 30.6854 12.1063C30.7276 10.8235 30.7276 8.7884 30.7276 7.62853C30.7276 6.56355 30.7452 3.44595 30.71 1.56906C30.6995 1.11214 29.4306 0.627104 28.8261 0.880167ZM95.1815 11.0062C94.9706 11.0062 94.8792 11.2241 94.7984 11.5862C94.5277 12.8445 94.236 13.1291 93.867 13.1291C93.4557 13.1291 93.0832 12.5035 92.9883 11.2558C92.9109 10.2752 92.925 8.46856 93.0199 6.67251C93.041 6.30346 92.939 5.93441 91.9479 5.5759C91.5226 5.42125 90.9005 5.19279 90.5947 5.93792C89.723 8.04327 89.3821 9.71279 89.3013 10.3911C89.2942 10.4263 89.2521 10.4333 89.245 10.3525C89.1958 9.80769 89.0798 8.82004 89.0658 6.74632C89.0658 6.34212 88.9779 5.99767 88.5315 5.71298C88.2398 5.53021 87.3611 5.20685 87.0448 5.59348C86.7706 5.90981 86.4508 6.75335 86.1204 7.75858C85.8533 8.57752 85.6635 9.12934 85.6635 9.12934L85.6705 6.08906C85.6705 5.77273 85.4596 5.66729 85.3893 5.64971C85.026 5.53831 84.653 5.46181 84.2751 5.42125C83.9694 5.42125 83.8955 5.59348 83.8955 5.83951C83.8955 5.87114 83.8499 8.7392 83.8499 10.7461V11.0273C83.6811 11.9517 83.1399 13.203 82.5494 13.203C81.9554 13.203 81.6777 12.6793 81.6777 10.2857C81.6777 8.89385 81.7199 8.28579 81.7375 7.27705C81.7515 6.69712 81.7726 6.25074 81.7726 6.14881C81.7691 5.83951 81.2313 5.68134 80.9818 5.62159C80.7726 5.57026 80.5575 5.54662 80.3421 5.5513C80.0996 5.56536 79.9309 5.72352 79.9309 5.94144V6.27886C79.6603 5.85508 79.2595 5.53067 78.7886 5.35447C77.8923 5.08735 76.9609 5.32284 76.2579 6.31049C75.6956 7.09428 75.3582 7.98001 75.2246 9.25587C75.1229 10.1476 75.1585 11.0496 75.33 11.9306C75.1227 12.8339 74.736 13.203 74.3108 13.203C73.6957 13.203 73.2493 12.1977 73.302 10.4614C73.3372 9.31562 73.5656 8.51425 73.8152 7.35438C73.9206 6.86231 73.8328 6.5987 73.6184 6.35267C73.418 6.12421 72.9927 6.00822 72.3847 6.15232C71.9488 6.25425 71.3267 6.36321 70.7573 6.44757C70.7573 6.44757 70.7925 6.30698 70.8206 6.06797C70.9682 4.80265 69.5904 4.9081 69.1546 5.30878C68.8563 5.57644 68.6736 5.94943 68.645 6.34915C68.5395 7.15755 69.2003 7.54418 69.2003 7.54418C68.9225 8.6783 68.4846 9.76708 67.8998 10.7778C67.6533 11.216 67.3834 11.6408 67.0914 12.0501L67.0879 11.6072C67.0809 9.51596 67.109 7.87105 67.1231 7.27705C67.1336 6.69712 67.1582 6.26128 67.1582 6.15936C67.1512 5.93441 67.0176 5.84654 66.7435 5.73758C66.4769 5.63346 66.196 5.57064 65.9105 5.5513C65.5344 5.52318 65.3059 5.72704 65.313 5.96253V6.27886C65.0424 5.85508 64.6415 5.53067 64.1706 5.35447C63.2744 5.08735 62.343 5.32284 61.64 6.31049C61.0566 7.18749 60.7014 8.19628 60.6067 9.24532C60.5081 10.0826 60.5258 10.9295 60.6594 11.7619C60.5188 12.4649 60.1076 13.203 59.6471 13.203C59.0531 13.203 58.7157 12.6793 58.7157 10.2857C58.7157 8.89385 58.7579 8.28579 58.779 7.27705C58.7895 6.69712 58.8141 6.25074 58.8141 6.14881C58.8071 5.83951 58.2729 5.68134 58.0233 5.62159C57.8072 5.56839 57.585 5.54474 57.3625 5.5513C57.1306 5.56887 56.9724 5.77625 56.9724 5.92738V6.27886C56.7019 5.85508 56.301 5.53067 55.8301 5.35447C54.9338 5.08735 54.0024 5.32635 53.2959 6.31049C52.832 6.95018 52.4559 7.66016 52.2661 9.23127C52.2099 9.68584 52.1841 10.1111 52.1888 10.5071C52.0025 11.6354 51.1871 12.9394 50.5193 12.9394C50.1327 12.9394 49.7601 12.1802 49.7601 10.5669C49.7601 8.41935 49.8936 5.3615 49.9147 5.06626L50.92 5.04869C51.3417 5.04517 51.7213 5.05572 52.2802 5.0276C52.5614 5.01002 52.832 4.0048 52.5438 3.87827C52.0701 3.80834 51.5921 3.77076 51.1133 3.76579C50.804 3.75876 49.9429 3.6955 49.9429 3.6955C49.9429 3.6955 50.0202 1.66396 50.0378 1.44956C50.0553 1.27382 49.8234 1.17892 49.6898 1.12269C49.3822 1.00068 49.0631 0.910007 48.7373 0.852051C48.2663 0.753637 48.0519 0.848535 48.0097 1.2457C47.9465 1.85376 47.9113 3.6252 47.9113 3.6252C47.5669 3.6252 46.3824 3.55491 46.0344 3.55491C45.7111 3.55491 45.3666 4.94324 45.8095 4.96082C46.3226 4.98191 47.2154 4.99596 47.8094 5.01705C47.8094 5.01705 47.7813 8.12763 47.7813 9.08716V9.3824C47.4579 11.08 46.3086 11.9974 46.3086 11.9974C46.5546 10.8727 46.052 10.0291 45.1452 9.31562C44.573 8.87267 43.9954 8.43681 43.4124 8.00813C43.4124 8.00813 43.8377 7.58635 44.2208 6.73929C44.4879 6.13827 44.502 5.44937 43.8377 5.29823C42.7481 5.04869 41.8519 5.85006 41.5847 6.70414C41.4778 6.9828 41.4501 7.28562 41.5047 7.57905C41.5593 7.87248 41.694 8.14507 41.894 8.36663L41.9889 8.4791C41.7429 8.9536 41.4055 9.59329 41.1173 10.0889C40.3229 11.4596 39.7219 12.5492 39.2685 12.5492C38.9065 12.5492 38.9135 11.4456 38.9135 10.4122C38.9135 9.52299 38.9768 8.18035 39.0295 6.79201C39.0471 6.33509 38.8186 6.075 38.432 5.83951C38.2 5.6954 37.7009 5.41071 37.4127 5.41071C36.9804 5.41071 35.7326 5.47046 34.5552 8.87979C34.4076 9.30859 34.1158 10.0924 34.1158 10.0924L34.1404 5.99416C34.1451 5.8934 34.0889 5.80905 33.9717 5.7411C33.6019 5.54292 33.1924 5.43003 32.7732 5.41071C32.5482 5.41071 32.4358 5.51615 32.4358 5.72704L32.3936 12.1345C32.3936 12.623 32.4077 13.1889 32.4569 13.4384C32.5061 13.688 32.5799 13.8919 32.6783 14.0114C32.7721 14.1409 32.9115 14.23 33.0684 14.2609C33.2407 14.296 34.1721 14.4156 34.2213 14.0606C34.281 13.6318 34.281 13.1678 34.7731 11.4421C35.5358 8.75326 36.5305 7.44225 37.0015 6.9783C37.0823 6.89746 37.1772 6.89043 37.1737 7.02399C37.1526 7.61447 37.0823 9.08716 37.0331 10.3384C36.9066 13.6845 37.5181 14.3066 38.3863 14.3066C39.0541 14.3066 39.9925 13.6423 40.9978 11.9693C41.6234 10.9254 42.235 9.90259 42.6708 9.16448C42.9766 9.44567 43.3175 9.75145 43.6584 10.0783C44.4563 10.8305 44.7129 11.5475 44.5442 12.2259C44.4106 12.746 43.9115 13.2803 43.0258 12.7601C42.7657 12.609 42.6567 12.493 42.3931 12.3207C42.2525 12.2294 42.0416 12.2012 41.9151 12.2961C41.6013 12.5378 41.3784 12.8784 41.2825 13.2627C41.177 13.6458 41.5636 13.8462 41.9608 14.0254C42.3053 14.1765 43.0398 14.3171 43.5108 14.3312C45.3455 14.3945 46.8147 13.4455 47.834 11.0062C48.0168 13.1151 48.797 14.3101 50.1502 14.3101C51.0535 14.3101 51.9603 13.1397 52.3575 11.9904C52.4723 12.459 52.6387 12.8655 52.8566 13.21C53.897 14.8619 55.9215 14.5034 56.9337 13.1045C57.0795 12.9236 57.2023 12.7252 57.2993 12.5141C57.33 12.9841 57.5331 13.4263 57.8698 13.7558C58.2064 14.0853 58.6528 14.2789 59.1234 14.2996C59.8053 14.2996 60.5118 13.9762 61.0074 12.862C61.064 12.9815 61.1274 13.0977 61.1971 13.21C62.241 14.8619 64.262 14.5034 65.2778 13.1045L65.4043 12.9253L65.4324 13.7934L64.4975 14.651C62.9299 16.0886 61.7419 17.1782 61.6506 18.447C61.5416 20.0638 62.8526 20.6648 63.8473 20.7457C64.9017 20.8265 65.805 20.2466 66.3568 19.4311C66.8489 18.7141 67.1652 17.1711 67.1406 15.6457L67.1055 13.4244C68.5999 11.7016 69.7448 9.70439 70.4761 7.54418C70.4761 7.54418 71.0561 7.54769 71.6712 7.50903C71.8715 7.49497 71.9277 7.53363 71.8926 7.68125C71.8469 7.85699 71.1088 10.6969 71.7836 12.5914C72.2406 13.8848 73.2809 14.3031 73.896 14.3031C74.6165 14.3031 75.3019 13.7583 75.6745 12.9499C75.7167 13.0389 75.7635 13.1256 75.8151 13.21C76.859 14.8619 78.8729 14.5034 79.8957 13.1045C80.1277 12.7882 80.2578 12.5141 80.2578 12.5141C80.4757 13.8848 81.5442 14.3066 82.1557 14.3066C82.7884 14.3066 83.3929 14.0465 83.8815 12.8901C83.9026 13.3998 83.9342 13.8145 83.9869 13.9446C84.015 14.0289 84.1978 14.1273 84.3279 14.1765C84.7782 14.3251 85.2603 14.3493 85.7232 14.2468C85.8744 14.2152 85.9939 14.0957 86.0114 13.7794C86.0536 12.9534 86.0255 11.5651 86.2786 10.5282C86.7003 8.79544 87.0905 8.12411 87.2768 7.79021C87.3822 7.60393 87.4982 7.57229 87.5017 7.77264C87.5122 8.1698 87.5298 9.34374 87.695 10.9184C87.8145 12.0782 87.9762 12.7636 88.0957 12.978C88.4472 13.6001 88.883 13.6282 89.2345 13.6282C89.4594 13.6282 89.9269 13.565 89.8847 13.1713C89.8671 12.9815 89.9023 11.79 90.317 10.0854C90.5877 8.96766 91.0411 7.96243 91.2028 7.58987C91.2625 7.45631 91.2906 7.56526 91.2906 7.58635C91.2555 8.35257 91.1782 10.8656 91.491 12.2399C91.9127 14.1027 93.1429 14.3066 93.5682 14.3066C94.482 14.3066 95.2272 13.6142 95.4802 11.7865C95.54 11.3472 95.4521 11.0062 95.1815 11.0062ZM56.9548 9.87798C56.9021 10.8445 56.7088 11.6529 56.41 12.2399C55.8617 13.3014 54.7792 13.6388 54.3012 12.1028C53.9567 10.9957 54.0727 9.48784 54.2168 8.67241C54.4277 7.46333 54.9619 6.60573 55.7914 6.68657C56.6455 6.76741 57.0638 7.86753 56.9513 9.87798M65.2919 9.89204C65.2426 10.8059 65.0072 11.7197 64.7471 12.2399C64.2163 13.3084 63.1022 13.6458 62.6382 12.1028C62.3219 11.0519 62.3992 9.6917 62.5539 8.8341C62.7577 7.71991 63.2498 6.68657 64.132 6.68657C64.9896 6.68657 65.4114 7.62501 65.2919 9.89204ZM65.5098 16.1202C65.4992 17.7862 65.2356 19.2484 64.6733 19.6701C63.8754 20.2676 62.8034 19.8213 63.0283 18.6052C63.2217 17.5296 64.1531 16.4295 65.5133 15.0904L65.5098 16.1202ZM79.9098 9.89907C79.8886 10.7082 79.7033 11.5046 79.365 12.2399C78.8343 13.3084 77.7271 13.6423 77.2561 12.1028C76.9996 11.2663 76.989 9.86744 77.1718 8.69351C77.3616 7.50551 77.8853 6.60573 78.7499 6.68657C79.604 6.76741 80.0047 7.86753 79.9098 9.90259" fill="#EEEDED"/>
<path d="M8.7509 4.27742C6.26821 4.27742 4.26566 6.28733 4.26566 8.77915C4.26566 11.271 6.26821 13.2809 8.7509 13.2809C11.2336 13.2809 13.2361 11.271 13.2361 8.77915C13.2361 6.28733 11.2336 4.27742 8.7509 4.27742ZM8.7509 11.7059C7.14652 11.7059 5.83491 10.3933 5.83491 8.77915C5.83491 7.16495 7.14261 5.85244 8.7509 5.85244C10.3592 5.85244 11.6669 7.16495 11.6669 8.77915C11.6669 10.3933 10.3553 11.7059 8.7509 11.7059ZM14.4658 4.09328C14.4658 4.67706 13.9973 5.14329 13.4196 5.14329C12.838 5.14329 12.3734 4.67314 12.3734 4.09328C12.3734 3.51342 12.8419 3.04327 13.4196 3.04327C13.9973 3.04327 14.4658 3.51342 14.4658 4.09328ZM17.4364 5.15896C17.37 3.75242 17.05 2.50651 16.0233 1.48001C15.0006 0.453503 13.7592 0.132231 12.3578 0.0617077C10.9135 -0.0205692 6.5844 -0.0205692 5.14007 0.0617077C3.74258 0.128313 2.50123 0.449585 1.47459 1.47609C0.447938 2.50259 0.131747 3.7485 0.0614817 5.15505C-0.0204939 6.60469 -0.0204939 10.9497 0.0614817 12.3993C0.127843 13.8059 0.447938 15.0518 1.47459 16.0783C2.50123 17.1048 3.73867 17.4261 5.14007 17.4966C6.5844 17.5789 10.9135 17.5789 12.3578 17.4966C13.7592 17.43 15.0006 17.1087 16.0233 16.0783C17.046 15.0518 17.3661 13.8059 17.4364 12.3993C17.5184 10.9497 17.5184 6.60861 17.4364 5.15896ZM15.5705 13.9548C15.266 14.7227 14.6766 15.3143 13.9076 15.6238C12.756 16.0822 10.0235 15.9764 8.7509 15.9764C7.47832 15.9764 4.7419 16.0783 3.59424 15.6238C2.82913 15.3182 2.23969 14.7266 1.93131 13.9548C1.47459 12.799 1.57998 10.0564 1.57998 8.77915C1.57998 7.5019 1.47849 4.75541 1.93131 3.60354C2.23579 2.83562 2.82523 2.24401 3.59424 1.93449C4.7458 1.47609 7.47832 1.58187 8.7509 1.58187C10.0235 1.58187 12.7599 1.48001 13.9076 1.93449C14.6727 2.24009 15.2621 2.8317 15.5705 3.60354C16.0272 4.75933 15.9218 7.5019 15.9218 8.77915C15.9218 10.0564 16.0272 12.8029 15.5705 13.9548Z" fill="#ECECEC"/>
</svg>
