<svg width="79" height="22" viewBox="0 0 79 22" fill="none" xmlns="http://www.w3.org/2000/svg">
<g clip-path="url(#clip0_111_1076)">
<mask id="mask0_111_1076" style="mask-type:luminance" maskUnits="userSpaceOnUse" x="0" y="5" width="16" height="16">
<path d="M0 5H16V21H0V5Z" fill="white"/>
</mask>
<g mask="url(#mask0_111_1076)">
<path d="M12.6 5.74951H15.0537L9.69372 11.8912L16 20.2501H11.0629L7.19314 15.1815L2.77029 20.2501H0.314286L6.04686 13.6787L0 5.75065H5.06286L8.55543 10.3827L12.6 5.74951ZM11.7371 18.7781H13.0971L4.32 7.14494H2.86171L11.7371 18.7781Z" fill="white"/>
</g>
</g>
<path d="M32.61 14.205L29.9333 18H27.4583L31.4917 12.7017L32.61 14.205ZM36.9917 18H34.205L27.55 8.76H30.3183L36.9917 18ZM31.8583 12.6283L34.5717 8.76H37.0833L32.94 14.205L31.8583 12.6283ZM38.7548 18V15.635H41.1748V18H38.7548ZM47.843 18.2017C47.2319 18.2017 46.6452 18.1161 46.083 17.945C45.5208 17.7739 45.0197 17.4989 44.5797 17.12C44.1397 16.7411 43.7913 16.2522 43.5347 15.6533C43.278 15.0544 43.1497 14.3272 43.1497 13.4717C43.1497 12.5794 43.2719 11.8217 43.5163 11.1983C43.7608 10.575 44.0969 10.0678 44.5247 9.67667C44.9524 9.27333 45.4474 8.98611 46.0097 8.815C46.5841 8.63167 47.1891 8.54 47.8247 8.54C48.3136 8.54 48.8147 8.58889 49.328 8.68667C49.8413 8.78444 50.2997 8.925 50.703 9.10833V11.125C50.2874 10.9417 49.8719 10.795 49.4563 10.685C49.0408 10.5628 48.613 10.5017 48.173 10.5017C47.3174 10.5017 46.6513 10.7156 46.1747 11.1433C45.698 11.5711 45.4597 12.2739 45.4597 13.2517C45.4597 14.2539 45.6736 14.9994 46.1013 15.4883C46.5413 15.9772 47.2624 16.2217 48.2647 16.2217C48.7169 16.2217 49.1569 16.1544 49.5847 16.02C50.0124 15.8733 50.3913 15.7144 50.7213 15.5433V17.5783C50.2936 17.7861 49.8474 17.9389 49.383 18.0367C48.9186 18.1467 48.4052 18.2017 47.843 18.2017ZM56.8451 18.275C55.3295 18.275 54.1929 17.8533 53.4351 17.01C52.6773 16.1667 52.2984 14.9506 52.2984 13.3617C52.2984 11.6628 52.6834 10.4283 53.4534 9.65833C54.2356 8.88833 55.3601 8.50333 56.8268 8.50333C57.8534 8.50333 58.709 8.68667 59.3934 9.05333C60.0779 9.40778 60.5851 9.94555 60.9151 10.6667C61.2573 11.3878 61.4284 12.2861 61.4284 13.3617C61.4284 14.9506 61.0312 16.1667 60.2368 17.01C59.4545 17.8533 58.324 18.275 56.8451 18.275ZM56.8451 16.3683C57.3829 16.3683 57.8168 16.2461 58.1468 16.0017C58.489 15.7572 58.7395 15.415 58.8984 14.975C59.0573 14.5228 59.1368 13.985 59.1368 13.3617C59.1368 12.665 59.0512 12.0967 58.8801 11.6567C58.7212 11.2167 58.4706 10.8928 58.1284 10.685C57.7984 10.4772 57.3706 10.3733 56.8451 10.3733C56.3073 10.3733 55.8734 10.4833 55.5434 10.7033C55.2134 10.9233 54.969 11.2533 54.8101 11.6933C54.6634 12.1333 54.5901 12.6894 54.5901 13.3617C54.5901 14.3394 54.7673 15.085 55.1218 15.5983C55.4762 16.1117 56.0506 16.3683 56.8451 16.3683ZM71.7865 11.84V18H69.4765V12.2433C69.4765 12.0111 69.4459 11.7911 69.3848 11.5833C69.3237 11.3633 69.2198 11.1739 69.0731 11.015C68.9265 10.8439 68.7248 10.7156 68.4681 10.63C68.2115 10.5322 67.8815 10.4833 67.4781 10.4833C67.1726 10.4833 66.8731 10.5139 66.5798 10.575C66.2987 10.6361 66.0481 10.7156 65.8281 10.8133V18H63.4998V9.53C63.7565 9.40778 64.062 9.28555 64.4165 9.16333C64.7709 9.04111 65.1559 8.93722 65.5715 8.85167C65.987 8.75389 66.4026 8.68055 66.8181 8.63167C67.2459 8.57055 67.6493 8.54 68.0281 8.54C68.8837 8.54 69.5865 8.65611 70.1365 8.88833C70.6865 9.10833 71.0959 9.46278 71.3648 9.95167C71.6459 10.4283 71.7865 11.0578 71.7865 11.84ZM69.2931 10.08C69.6843 9.75 70.1304 9.475 70.6315 9.255C71.1326 9.02278 71.6581 8.84555 72.2081 8.72333C72.7581 8.60111 73.2837 8.54 73.7848 8.54C74.6404 8.54 75.3431 8.65611 75.8931 8.88833C76.4431 9.10833 76.8526 9.46278 77.1215 9.95167C77.4026 10.4283 77.5431 11.0578 77.5431 11.84V18H75.2331V12.2433C75.2331 12.0111 75.2026 11.7911 75.1415 11.5833C75.0804 11.3633 74.9765 11.1739 74.8298 11.015C74.6831 10.8439 74.4815 10.7156 74.2248 10.63C73.9681 10.5322 73.6381 10.4833 73.2348 10.4833C72.9293 10.4833 72.6298 10.5261 72.3365 10.6117C72.0554 10.6972 71.8048 10.8256 71.5848 10.9967L69.2931 10.08Z" fill="white"/>
<defs>
<clipPath id="clip0_111_1076">
<rect width="16" height="16" fill="white" transform="translate(0 5)"/>
</clipPath>
</defs>
</svg>
