<svg width="71" height="16" viewBox="0 0 71 16" fill="none" xmlns="http://www.w3.org/2000/svg">
<g clip-path="url(#clip0_97_69)">
<path d="M22.0538 2.4731C21.9244 1.99505 21.6721 1.55922 21.3219 1.20904C20.9717 0.858865 20.5358 0.606553 20.0578 0.477241C18.3076 0 11.2643 0 11.2643 0C11.2643 0 4.22067 0.0144828 2.47074 0.491724C1.9927 0.621057 1.55689 0.873378 1.20671 1.22356C0.856536 1.57373 0.604214 2.00955 0.474881 2.48759C-0.0544979 5.59724 -0.259877 10.3353 0.489364 13.3204C0.618697 13.7985 0.871018 14.2343 1.2212 14.5844C1.57137 14.9346 2.00719 15.1869 2.48523 15.3163C4.23529 15.7935 11.2787 15.7935 11.2787 15.7935C11.2787 15.7935 18.3222 15.7935 20.0723 15.3163C20.5503 15.1869 20.9861 14.9346 21.3363 14.5844C21.6865 14.2343 21.9388 13.7985 22.0681 13.3204C22.6263 10.2065 22.7985 5.47131 22.0536 2.47324" fill="#FF0000"/>
<path d="M9.02248 11.2811L14.8655 7.89686L9.02248 4.51245V11.2811Z" fill="white"/>
<path d="M67.7568 4.58472C68.5233 4.58472 69.1018 4.72927 69.5068 5.00403C69.9117 5.27888 70.201 5.71281 70.3746 6.30583C70.5481 6.89879 70.6204 7.70858 70.6204 8.74996V10.4422H66.9034V10.9628L66.9614 12.3947C67.0047 12.7129 67.0771 12.9443 67.1927 13.0889C67.3086 13.2335 67.4964 13.3058 67.7423 13.3058C68.075 13.3058 68.3065 13.1758 68.4221 12.9155C68.5523 12.6551 68.6101 12.2211 68.6246 11.6282L70.5481 11.7439C70.5626 11.8307 70.5626 11.9464 70.5626 12.0909C70.5626 13.0021 70.3167 13.682 69.8105 14.1302C69.3043 14.5785 68.6101 14.81 67.6989 14.81C66.5997 14.81 65.8332 14.4629 65.3993 13.7832C64.9655 13.1033 64.7341 12.033 64.7341 10.6013V8.85121C64.7832 6.39258 65.2156 4.5919 67.7568 4.58472ZM41.0148 4.77272V12.0187C41.0148 12.4526 41.0581 12.7708 41.1593 12.9588C41.3647 13.3609 41.897 13.2581 42.1862 13.06C42.3531 12.9471 42.4877 12.7926 42.5767 12.6118V4.77259H44.7895V14.6508H43.0539L42.8659 13.4359H42.8226C42.3454 14.3471 41.6366 14.8098 40.6966 14.8098C39.2497 14.8062 38.8956 13.7638 38.8113 12.705L38.8058 12.6304C38.7954 12.47 38.7893 12.3094 38.7875 12.1487V4.77272H41.0148ZM52.4261 4.77272V12.0187C52.4261 12.4526 52.4694 12.7708 52.5706 12.9588C52.7761 13.3609 53.3083 13.2581 53.5975 13.06C53.7645 12.9471 53.899 12.7926 53.988 12.6118V4.77259H56.2008V14.6508H54.4652L54.2772 13.4359H54.2339C53.7567 14.3471 53.0479 14.8098 52.1079 14.8098C50.661 14.8062 50.3069 13.7638 50.2226 12.705L50.2171 12.6304C50.2067 12.47 50.2006 12.3094 50.1988 12.1487V4.77272H52.4261ZM34.5931 4.58472C35.3163 4.58472 35.9092 4.72927 36.3432 5.033C36.777 5.33672 37.1097 5.79962 37.3121 6.4359C37.5146 7.07231 37.6159 7.92555 37.6159 8.98141V10.4131C37.6159 11.469 37.5146 12.3079 37.3121 12.9442C37.1097 13.5807 36.7915 14.0435 36.3432 14.3472C35.8949 14.6364 35.2873 14.7955 34.5353 14.7955C33.7542 14.81 33.1468 14.6509 32.6985 14.3617C32.2502 14.058 31.9319 13.5951 31.744 12.9588C31.5559 12.3224 31.4691 11.4835 31.4691 10.4278V8.99576C31.4691 7.9399 31.5703 7.07217 31.7873 6.43576C32.0043 5.785 32.3368 5.3221 32.7997 5.033C33.2625 4.74362 33.8555 4.58458 34.5931 4.58458M59.672 0.621826V5.82845H59.6865C59.889 5.45245 60.1492 5.14872 60.5109 4.91727C60.8486 4.69032 61.2465 4.56947 61.6534 4.57024C62.1886 4.57024 62.5935 4.71479 62.8972 4.98955C63.201 5.27893 63.4179 5.72721 63.548 6.34914C63.6742 6.95162 63.7459 7.78486 63.7503 8.83562L63.7505 8.9381V10.5C63.7505 11.9607 63.5625 13.0455 63.2153 13.7398C62.8539 14.434 62.3043 14.7811 61.5521 14.7811C61.1328 14.7811 60.7567 14.6799 60.4097 14.4919C60.1028 14.3129 59.8483 14.0564 59.6717 13.7482L59.643 13.6963H59.5997L59.3683 14.6364H57.5315V0.621964L59.672 0.621826ZM50.8206 1.12803V2.92127H48.6222V14.6508H46.4528V2.92141H44.24V1.12817L50.8206 1.12803ZM26.971 1.12803L26.9724 1.13355C26.9935 1.22748 27.2859 2.52748 27.6076 4.0421L27.633 4.1621L27.6713 4.34348L27.697 4.46527L27.7098 4.52638L27.7355 4.64886L27.7483 4.71024L27.7738 4.83314L27.811 5.01286C28.0283 6.06169 28.2356 7.11355 28.3596 7.86776H28.4175C28.5363 7.19121 28.7088 6.32541 28.8928 5.44141L28.9411 5.21052C28.9653 5.09484 28.9897 4.97934 29.0142 4.86403L29.052 4.68514C29.3019 3.51367 29.5592 2.3438 29.824 1.17562L29.8281 1.157L29.8348 1.12803H32.0476L29.4876 10.2542V14.6364H27.3037V10.2686H27.2892L24.7582 1.1279L26.971 1.12803ZM34.5497 6.11769C34.2459 6.11769 34.0435 6.27686 33.9134 6.60955C33.7833 6.94224 33.7254 7.44831 33.7254 8.15714V11.2377C33.7254 11.9609 33.7832 12.4959 33.8989 12.8142C34.0147 13.1324 34.2316 13.2915 34.5497 13.2915C34.8534 13.2915 35.0703 13.1324 35.2006 12.8142C35.3308 12.4959 35.3886 11.9609 35.3886 11.2377V8.157C35.3886 7.44831 35.3306 6.92762 35.2006 6.60941C35.0703 6.27686 34.8534 6.11769 34.5497 6.11769ZM60.0625 6.40707C59.8862 6.56983 59.7608 6.77052 59.6862 7.02141L59.672 7.07231V12.6839C59.8513 12.9876 60.1059 13.1901 60.5542 13.2046C60.7856 13.2046 60.9736 13.1178 61.1184 12.9443C61.2629 12.7708 61.3641 12.4815 61.4219 12.0764C61.4776 11.6878 61.5065 11.1524 61.5087 10.4704V9.09714C61.5087 8.31617 61.4797 7.72321 61.4364 7.30376C61.3785 6.88431 61.3064 6.58058 61.1761 6.40707C60.9244 6.04541 60.3807 6.04983 60.0625 6.40707ZM67.7135 6.07438C67.4675 6.08881 67.2939 6.16114 67.1927 6.29134C67.0771 6.4359 67.0047 6.65286 66.9614 6.97107C66.9188 7.28279 66.9041 8.37245 66.9034 8.41603V9.1261H68.5233V8.4999V8.5119C68.5223 8.73079 68.5178 8.38486 68.5079 7.96017L68.5065 7.90307C68.4974 7.52983 68.4841 7.11369 68.4655 6.97107C68.4221 6.63838 68.3497 6.40693 68.2341 6.27686C68.1183 6.14665 67.9448 6.07438 67.7134 6.07438" fill="white"/>
</g>
<defs>
<clipPath id="clip0_97_69">
<rect width="70.6207" height="16" fill="white"/>
</clipPath>
</defs>
</svg>
